<svg width="123" height="26" viewBox="0 0 123 26" fill="none" xmlns="http://www.w3.org/2000/svg">
<g clip-path="url(#clip0_7358_1868)">
<path d="M53.7654 14.0325C56.3149 13.2934 58.0294 11.5848 58.0294 8.88455C58.0294 5.18883 54.8091 3.36511 50.6606 3.36511H39.2812V19.5297H43.9851V14.4263H48.7597L53.0461 19.5297H58.5401L53.7654 14.0325ZM50.3102 11.0091H43.959V6.94569H50.3102C52.0024 6.94569 53.2287 7.40626 53.2287 8.9774C53.2287 10.5485 52.0024 11.0091 50.3102 11.0091Z" fill="#1141CB"/>
<path d="M65.2164 13.8245H75.459L73.901 10.1548H65.2164V7.08312H75.9174L77.4754 3.36511H60.4902V19.5297H65.2164V13.8245Z" fill="#1141CB"/>
<path d="M83.2125 15.8117H94.7111V19.5297H78.4863V3.36511H83.2125V15.8117Z" fill="#1141CB"/>
<path d="M101.4 3.36511H96.6738V19.5297H101.4V3.36511Z" fill="#1141CB"/>
<path d="M4.33515 13.3751C4.33515 10.2922 6.85479 7.78139 9.94842 7.78139H19.0206L21.3203 3.38367H9.95215C4.42461 3.38367 -0.0742188 7.86682 -0.0742188 13.3751V19.5482H14.0596V15.1505H4.33515V13.3714V13.3751Z" fill="#1141CB"/>
<path d="M110.428 22.5457H110.424C100.696 21.7954 87.4865 20.0534 75.2871 25.6917C78.6566 24.9897 82.6298 24.9191 86.8491 25.0863C100.387 25.61 116.432 28.6 123.082 21.1268C120.693 23.0917 116.168 22.9877 110.432 22.5494" fill="#1141CB"/>
<path d="M24.517 3.36511L16.127 19.5297H21.0842L22.6124 16.4357H31.5131L33.0413 19.5297H38.0694L29.6793 3.36511H24.5133H24.517ZM31.4982 10.0471L30.3577 10.2403C28.7661 10.5077 27.5212 11.752 27.2491 13.3343L27.0553 14.4708L26.8615 13.3343C26.5931 11.7483 25.3445 10.5077 23.7529 10.2365L22.6124 10.0434L23.7529 9.85025C25.3445 9.57911 26.5894 8.33854 26.8615 6.75254L27.0553 5.61597L27.2491 6.75254C27.5175 8.33854 28.7661 9.57911 30.3577 9.85025L31.4982 10.0434V10.0471Z" fill="#1141CB"/>
<path d="M34.3473 4.57967L34.5597 5.8314L34.7722 4.57967C34.9027 3.8071 35.5102 3.20168 36.2892 3.06797L37.5453 2.85625L36.2892 2.64453C35.5139 2.51453 34.9064 1.9091 34.7722 1.13282L34.5597 -0.118896L34.3473 1.13282C34.2169 1.90539 33.6093 2.51082 32.8303 2.64453L31.5742 2.85625L32.8303 3.06797C33.6056 3.19797 34.2131 3.80339 34.3473 4.57967Z" fill="#1141CB"/>
<path d="M122.675 3.36511H117.278L112.898 8.30511H118.165L122.675 3.36511Z" fill="#1141CB"/>
<path d="M108.031 19.5297L112.597 14.378L117.163 19.5297H122.839L115.47 11.2617L112.899 8.30511L108.493 3.36511H102.816L109.999 11.3323L102.652 19.5297H108.031Z" fill="#1141CB"/>
</g>
<defs>
<clipPath id="clip0_7358_1868">
<rect width="123" height="26" fill="white"/>
</clipPath>
</defs>
</svg>
