<svg width="33" height="32" viewBox="0 0 33 32" fill="none" xmlns="http://www.w3.org/2000/svg">
<rect x="1.64062" y="1.5" width="29" height="29" rx="14.5" fill="#070707"/>
<rect x="1.64062" y="1.5" width="29" height="29" rx="14.5" stroke="white" stroke-width="3"/>
<g clip-path="url(#clip0_7469_3754)">
<path fill-rule="evenodd" clip-rule="evenodd" d="M18.4753 10.3125H11.4753C10.5893 10.3125 9.87109 11.0307 9.87109 11.9167V20.6667C9.87109 21.5526 10.5893 22.2708 11.4753 22.2708H20.2253C21.1112 22.2708 21.8294 21.5526 21.8294 20.6667V13.6667H21.1003V14.3958C21.1003 15.1207 20.5126 15.7083 19.7878 15.7083C19.0629 15.7083 18.4753 15.1207 18.4753 14.3958V13.6667H17.7461C17.0212 13.6667 16.4336 13.079 16.4336 12.3542C16.4336 11.6293 17.0212 11.0417 17.7461 11.0417H18.4753V10.3125ZM20.6905 20.5622C20.6905 20.8767 20.4356 21.1317 20.1211 21.1317H12.8379L17.2183 17.1893C17.6146 16.8326 18.2023 16.79 18.6459 17.0858L20.6905 18.4488V20.5622ZM13.5169 15.125C14.1613 15.125 14.6836 14.6027 14.6836 13.9583C14.6836 13.314 14.1613 12.7917 13.5169 12.7917C12.8726 12.7917 12.3503 13.314 12.3503 13.9583C12.3503 14.6027 12.8726 15.125 13.5169 15.125Z" fill="white"/>
<path fill-rule="evenodd" clip-rule="evenodd" d="M19.7852 9.72919C20.1073 9.72919 20.3685 9.99036 20.3685 10.3125V11.7709H21.8268C22.149 11.7709 22.4102 12.032 22.4102 12.3542C22.4102 12.6764 22.149 12.9375 21.8268 12.9375H20.3685V14.3959C20.3685 14.718 20.1073 14.9792 19.7852 14.9792C19.463 14.9792 19.2018 14.718 19.2018 14.3959V12.9375H17.7435C17.4213 12.9375 17.1602 12.6764 17.1602 12.3542C17.1602 12.032 17.4213 11.7709 17.7435 11.7709H19.2018V10.3125C19.2018 9.99036 19.463 9.72919 19.7852 9.72919Z" fill="white"/>
</g>
<defs>
<clipPath id="clip0_7469_3754">
<rect width="14" height="14" fill="white" transform="translate(9.14062 9)"/>
</clipPath>
</defs>
</svg>
