<svg width="25" height="24" viewBox="0 0 25 24" fill="none" xmlns="http://www.w3.org/2000/svg">
<path d="M20.1651 16.811C19.8882 17.4565 19.5461 18.072 19.1441 18.648C18.6071 19.415 18.1661 19.945 17.8281 20.24C17.3031 20.722 16.7391 20.97 16.1361 20.984C15.7041 20.984 15.1821 20.861 14.5741 20.611C13.9641 20.362 13.4041 20.24 12.8911 20.24C12.3541 20.24 11.7781 20.362 11.1611 20.611C10.5451 20.861 10.0471 20.992 9.66614 21.004C9.08914 21.029 8.51214 20.775 7.93714 20.24C7.57014 19.92 7.11114 19.37 6.56014 18.592C5.97014 17.763 5.48514 16.798 5.10514 15.701C4.69814 14.514 4.49414 13.366 4.49414 12.254C4.49414 10.981 4.76914 9.88202 5.32014 8.96202C5.73689 8.23949 6.33269 7.63646 7.05014 7.21102C7.75761 6.78669 8.56523 6.55821 9.39014 6.54902C9.85014 6.54902 10.4531 6.69102 11.2001 6.97102C11.9471 7.25102 12.4271 7.39302 12.6361 7.39302C12.7941 7.39302 13.3251 7.22602 14.2291 6.89502C15.0821 6.58802 15.8021 6.46102 16.3921 6.51102C17.9921 6.64002 19.1931 7.27002 19.9921 8.40602C18.5621 9.27302 17.8551 10.486 17.8691 12.043C17.8811 13.256 18.3221 14.265 19.1861 15.066C19.5681 15.4316 20.0138 15.7241 20.5011 15.929C20.3951 16.236 20.2831 16.529 20.1651 16.811ZM16.4981 2.38002C16.4981 3.33002 16.1501 4.21802 15.4591 5.03902C14.6231 6.01502 13.6131 6.58002 12.5181 6.49102C12.5038 6.37156 12.4968 6.25134 12.4971 6.13102C12.4971 5.21802 12.8931 4.24202 13.6001 3.44302C13.9521 3.03902 14.4001 2.70202 14.9431 2.43402C15.4851 2.17002 15.9971 2.02402 16.4791 1.99902C16.4921 2.12702 16.4981 2.25402 16.4981 2.38002Z" fill="#151C24"/>
</svg>
