<svg width="18" height="18" viewBox="0 0 18 18" fill="none" xmlns="http://www.w3.org/2000/svg">
<g id="car-01">
<path id="Vector" d="M1.875 9L3.375 9.75" stroke="#1141CB" stroke-width="1.125" stroke-linecap="round" stroke-linejoin="round"/>
<path id="Vector_2" d="M16.125 9L14.625 9.75" stroke="#1141CB" stroke-width="1.125" stroke-linecap="round" stroke-linejoin="round"/>
<path id="Vector_3" d="M2.25 6L3.375 6.75" stroke="#1141CB" stroke-width="1.125" stroke-linecap="round" stroke-linejoin="round"/>
<path id="Vector_4" d="M15.75 6L14.625 6.75" stroke="#1141CB" stroke-width="1.125" stroke-linecap="round" stroke-linejoin="round"/>
<path id="Vector_5" d="M1.5 12V14.9115C1.5 15.1955 1.66113 15.4558 1.93141 15.5433C2.23946 15.643 2.68673 15.75 3.1875 15.75C3.68827 15.75 4.13554 15.643 4.44359 15.5433C4.71387 15.4558 4.875 15.1955 4.875 14.9115V13.5" stroke="#1141CB" stroke-width="1.125" stroke-linecap="round" stroke-linejoin="round"/>
<path id="Vector_6" d="M13.125 13.5V14.9115C13.125 15.1955 13.2861 15.4558 13.5564 15.5433C13.8644 15.643 14.3117 15.75 14.8125 15.75C15.3133 15.75 15.7606 15.643 16.0686 15.5433C16.3389 15.4558 16.5 15.1955 16.5 14.9115V12" stroke="#1141CB" stroke-width="1.125" stroke-linecap="round" stroke-linejoin="round"/>
<path id="Vector_7" d="M1.5 12.375V9.81443C1.5 9.288 1.68458 8.77823 2.0216 8.3739L3.375 6.75H14.625L15.9784 8.3739C16.3154 8.77823 16.5 9.288 16.5 9.81443V12.375C16.5 12.375 14.2485 13.5 13.125 13.5H4.875C3.75154 13.5 1.5 12.375 1.5 12.375Z" stroke="#1141CB" stroke-width="1.125" stroke-linecap="round" stroke-linejoin="round"/>
<path id="Vector_8" d="M6 13.5L6.57906 11.7628C6.68114 11.4565 6.96775 11.25 7.29057 11.25H10.7094C11.0323 11.25 11.3188 11.4565 11.4209 11.7628L12 13.5" stroke="#1141CB" stroke-width="1.125" stroke-linecap="round" stroke-linejoin="round"/>
<path id="Vector_9" d="M3.375 6.75L4.53311 3.27565C4.73728 2.66314 5.3105 2.25 5.95614 2.25H12.0439C12.6895 2.25 13.2627 2.66314 13.4668 3.27565L14.625 6.75" stroke="#1141CB" stroke-width="1.125" stroke-linecap="round" stroke-linejoin="round"/>
</g>
</svg>
