<svg width="16" height="16" viewBox="0 0 16 16" fill="none" xmlns="http://www.w3.org/2000/svg">
<path d="M9.48712 2.33869C12.6373 3.17983 14.5025 6.39727 13.6628 9.52021C12.8228 12.6441 9.59138 14.5021 6.4404 13.6607C4.1027 13.0365 2.4708 11.1024 2.12962 8.86841C2.0753 8.51274 1.74291 8.26841 1.38722 8.32274C1.03153 8.37707 0.787217 8.70947 0.841544 9.06514C1.2586 11.7959 3.25204 14.158 6.10425 14.9196C9.94312 15.9446 13.8927 13.683 14.9211 9.85854C15.9496 6.03327 13.663 2.10504 9.82325 1.07979C6.21838 0.117238 2.51724 2.05235 1.22674 5.45847C1.15338 5.65212 1.17644 5.86911 1.28886 6.04302C1.4013 6.21692 1.5897 6.32702 1.7964 6.3396L3.43177 6.43916C3.79092 6.46103 4.0998 6.1876 4.12166 5.82845C4.12985 5.69392 4.12166 5.54717 4.03296 5.45847L3.36148 4.787C3.24597 4.67149 3.23044 4.48854 3.33217 4.36073C4.74669 2.58363 7.13965 1.71189 9.48712 2.33869Z" fill="#434343"/>
<path fill-rule="evenodd" clip-rule="evenodd" d="M8.00065 4.66699C8.36885 4.66699 8.66732 4.96547 8.66732 5.33366V7.72419L9.80538 8.86226C10.0657 9.12259 10.0657 9.54472 9.80538 9.80506C9.54505 10.0654 9.12292 10.0654 8.86258 9.80506L7.52925 8.47173C7.40425 8.34673 7.33398 8.17713 7.33398 8.00033V5.33366C7.33398 4.96547 7.63245 4.66699 8.00065 4.66699Z" fill="#434343"/>
</svg>
