<svg width="16" height="16" viewBox="0 0 16 16" fill="none" xmlns="http://www.w3.org/2000/svg">
<path d="M9.48712 2.33894C12.6373 3.18007 14.5025 6.39751 13.6628 9.52045C12.8228 12.6443 9.59138 14.5023 6.4404 13.6609C4.1027 13.0367 2.4708 11.1027 2.12962 8.86865C2.0753 8.51299 1.74291 8.26865 1.38722 8.32299C1.03153 8.37732 0.787217 8.70972 0.841544 9.06539C1.2586 11.7962 3.25204 14.1583 6.10425 14.9199C9.94312 15.9449 13.8927 13.6833 14.9211 9.85879C15.9496 6.03351 13.663 2.10529 9.82325 1.08003C6.21838 0.117482 2.51724 2.05259 1.22674 5.45872C1.15338 5.65237 1.17644 5.86936 1.28886 6.04326C1.4013 6.21716 1.5897 6.32727 1.7964 6.33985L3.43177 6.43941C3.79092 6.46127 4.0998 6.18785 4.12166 5.82869C4.12985 5.69417 4.12166 5.54742 4.03296 5.45872L3.36148 4.78725C3.24597 4.67173 3.23044 4.48879 3.33217 4.36097C4.74669 2.58387 7.13965 1.71213 9.48712 2.33894Z" fill="#434343"/>
<path fill-rule="evenodd" clip-rule="evenodd" d="M8.00065 4.66675C8.36885 4.66675 8.66732 4.96523 8.66732 5.33341V7.72395L9.80538 8.86201C10.0657 9.12235 10.0657 9.54448 9.80538 9.80481C9.54505 10.0651 9.12292 10.0651 8.86258 9.80481L7.52925 8.47148C7.40425 8.34648 7.33398 8.17688 7.33398 8.00008V5.33341C7.33398 4.96523 7.63245 4.66675 8.00065 4.66675Z" fill="#434343"/>
</svg>
