<svg width="40" height="41" viewBox="0 0 40 41" fill="none" xmlns="http://www.w3.org/2000/svg">
<path d="M17.3333 4.30003H22.6667V5.63337H17.3333V4.30003ZM24 2.30003C24 2.12322 23.9298 1.95365 23.8048 1.82863C23.6797 1.7036 23.5102 1.63337 23.3333 1.63337H16.6667C16.4899 1.63337 16.3203 1.7036 16.1953 1.82863C16.0703 1.95365 16 2.12322 16 2.30003V2.9667H24V2.30003ZM36.7233 4.73937L32.2447 1.84737C32.0976 1.75211 31.9332 1.68678 31.7609 1.6551C31.5886 1.62342 31.4117 1.62601 31.2404 1.66272C31.0691 1.69944 30.9067 1.76956 30.7625 1.86907C30.6183 1.96859 30.4951 2.09555 30.4 2.2427L37.12 6.5847C37.3114 6.28719 37.3771 5.92597 37.3028 5.58011C37.2284 5.23426 37.0201 4.93195 36.7233 4.73937ZM4.34801 8.85537L11.078 4.5287L10.3247 3.36337L3.60468 7.70537L4.34801 8.85537ZM5.10268 28.704C5.18937 28.9733 5.35905 29.2082 5.58742 29.3752C5.81579 29.5421 6.09114 29.6325 6.37401 29.6334H8.54401L3.93335 14.534L2.07268 15.4627C1.78919 15.6066 1.56579 15.8462 1.44206 16.1391C1.31833 16.4319 1.30225 16.7591 1.39668 17.0627L5.10268 28.704ZM26 37.6334H14V38.3C14 38.4768 14.0703 38.6464 14.1953 38.7714C14.3203 38.8965 14.4899 38.9667 14.6667 38.9667H25.3333C25.5102 38.9667 25.6797 38.8965 25.8048 38.7714C25.9298 38.6464 26 38.4768 26 38.3V37.6334ZM37.9273 15.4627L36.07 14.534L31.456 29.6334H33.626C33.9085 29.6326 34.1835 29.5426 34.4117 29.3762C34.6399 29.2097 34.8097 28.9754 34.8967 28.7067L38.6033 17.064C38.6981 16.7603 38.6822 16.4328 38.5585 16.1396C38.4347 15.8465 38.2111 15.6066 37.9273 15.4627Z" fill="#1141CB"/>
<path d="M11.6782 33.5875C11.9589 33.6635 12.2073 33.8289 12.3856 34.0587C12.5638 34.2884 12.6624 34.5701 12.6662 34.8609V35.6335C12.6662 35.8104 12.7364 35.9799 12.8615 36.1049C12.9865 36.23 13.1561 36.3002 13.3329 36.3002H26.6662C26.843 36.3002 27.0126 36.23 27.1376 36.1049C27.2626 35.9799 27.3329 35.8104 27.3329 35.6335V34.8609C27.3367 34.5701 27.4352 34.2884 27.6135 34.0587C27.7918 33.8289 28.0401 33.6635 28.3209 33.5875C28.5006 33.5348 28.6645 33.4383 28.7978 33.3067C28.9311 33.1751 29.0297 33.0126 29.0849 32.8335L35.7482 11.0262C35.7857 10.901 35.7816 10.767 35.7365 10.6442C35.6915 10.5215 35.6078 10.4167 35.4982 10.3455L27.6315 5.28954C27.5718 5.25099 27.5006 5.23418 27.43 5.24195C27.3593 5.24972 27.2935 5.2816 27.2435 5.33221L25.8042 6.77154C25.6792 6.89658 25.5097 6.96684 25.3329 6.96688H14.6662C14.4894 6.96684 14.3199 6.89658 14.1949 6.77154L12.7522 5.32821C12.694 5.26997 12.6152 5.23713 12.5329 5.23688C12.4733 5.23713 12.4151 5.25424 12.3649 5.28621L4.4982 10.3422C4.38846 10.4133 4.30477 10.5181 4.25969 10.6409C4.21461 10.7636 4.21058 10.8976 4.2482 11.0229L10.9149 32.8302C10.9694 33.0098 11.0678 33.173 11.201 33.3052C11.3342 33.4374 11.4982 33.5344 11.6782 33.5875ZM8.6662 13.6335C8.66512 12.666 8.96509 11.7221 9.52452 10.9327C10.0839 10.1434 10.8751 9.54758 11.7883 9.22801C12.7016 8.90843 13.6916 8.88091 14.6211 9.14924C15.5507 9.41757 16.3738 9.96846 16.9762 10.7255L24.5095 12.1662C25.5898 11.5998 26.849 11.4793 28.0171 11.8306C29.1851 12.1819 30.169 12.977 30.7576 14.0453C31.3462 15.1136 31.4927 16.37 31.1657 17.5451C30.8386 18.7202 30.0641 19.7203 29.0082 20.3309L25.9289 26.1002C25.9735 26.387 25.9972 26.6767 25.9995 26.9669C26.0022 27.847 25.8112 28.717 25.4401 29.5151C25.069 30.3132 24.5268 31.0199 23.8521 31.585C23.1773 32.1501 22.3865 32.5599 21.5356 32.7852C20.6848 33.0105 19.7948 33.0459 18.9288 32.8889C18.0628 32.7318 17.2419 32.3861 16.5244 31.8763C15.8069 31.3665 15.2103 30.7051 14.777 29.939C14.3437 29.1729 14.0843 28.3208 14.0171 27.4432C13.9499 26.5657 14.0766 25.684 14.3882 24.8609L11.4549 17.9035C10.6262 17.5386 9.92149 16.9408 9.4264 16.1827C8.93131 15.4246 8.6672 14.539 8.6662 13.6335Z" fill="#1141CB"/>
<path d="M20.0007 22.3001C19.0777 22.3001 18.1754 22.5738 17.408 23.0866C16.6406 23.5994 16.0424 24.3282 15.6892 25.1809C15.336 26.0336 15.2436 26.972 15.4237 27.8772C15.6037 28.7824 16.0482 29.614 16.7008 30.2666C17.3535 30.9193 18.185 31.3637 19.0902 31.5438C19.9955 31.7238 20.9338 31.6314 21.7865 31.2782C22.6392 30.925 23.3681 30.3269 23.8808 29.5594C24.3936 28.792 24.6673 27.8898 24.6673 26.9668C24.6657 25.7296 24.1736 24.5435 23.2987 23.6687C22.4239 22.7939 21.2378 22.3017 20.0007 22.3001ZM20.0007 29.6334C19.4732 29.6334 18.9577 29.477 18.5191 29.184C18.0806 28.891 17.7388 28.4745 17.537 27.9873C17.3351 27.5 17.2823 26.9638 17.3852 26.4465C17.4881 25.9293 17.7421 25.4541 18.115 25.0812C18.488 24.7082 18.9631 24.4542 19.4804 24.3513C19.9977 24.2485 20.5339 24.3013 21.0211 24.5031C21.5084 24.7049 21.9249 25.0467 22.2179 25.4853C22.5109 25.9238 22.6673 26.4394 22.6673 26.9668C22.6673 27.674 22.3864 28.3523 21.8863 28.8524C21.3862 29.3525 20.7079 29.6334 20.0007 29.6334Z" fill="#1141CB"/>
<path d="M19.9993 28.3C20.7357 28.3 21.3327 27.7031 21.3327 26.9667C21.3327 26.2303 20.7357 25.6334 19.9993 25.6334C19.263 25.6334 18.666 26.2303 18.666 26.9667C18.666 27.7031 19.263 28.3 19.9993 28.3Z" fill="#1141CB"/>
<path d="M2.88113 6.58542L9.59979 2.24342C9.40784 1.9465 9.10581 1.73798 8.76013 1.66372C8.41445 1.58946 8.05343 1.65554 7.75646 1.84742L3.27513 4.74009C3.12803 4.83524 3.00113 4.95846 2.90168 5.10268C2.80223 5.24691 2.73218 5.40932 2.69552 5.58063C2.65887 5.75195 2.65634 5.9288 2.68807 6.1011C2.7198 6.27339 2.78518 6.43774 2.88046 6.58475L2.88113 6.58542ZM36.3951 7.70542L29.6751 3.36342L28.9218 4.52875L35.6518 8.85542L36.3951 7.70542Z" fill="#1141CB"/>
<path d="M13.3327 14.3002C13.7009 14.3002 13.9993 14.0017 13.9993 13.6335C13.9993 13.2653 13.7009 12.9669 13.3327 12.9669C12.9645 12.9669 12.666 13.2653 12.666 13.6335C12.666 14.0017 12.9645 14.3002 13.3327 14.3002Z" fill="#1141CB"/>
<path d="M16.6667 13.6334C16.6667 12.9742 16.4712 12.3297 16.1049 11.7815C15.7386 11.2334 15.218 10.8061 14.6089 10.5538C13.9999 10.3016 13.3296 10.2355 12.683 10.3642C12.0364 10.4928 11.4425 10.8102 10.9763 11.2764C10.5101 11.7426 10.1927 12.3365 10.0641 12.9831C9.93543 13.6297 10.0014 14.3 10.2537 14.9091C10.506 15.5181 10.9333 16.0387 11.4814 16.405C12.0296 16.7713 12.6741 16.9668 13.3333 16.9668C14.2171 16.9657 15.0643 16.6142 15.6892 15.9893C16.3141 15.3644 16.6656 14.5172 16.6667 13.6334ZM11.3333 13.6334C11.3333 13.2379 11.4506 12.8512 11.6704 12.5223C11.8902 12.1934 12.2025 11.9371 12.568 11.7857C12.9334 11.6343 13.3356 11.5947 13.7235 11.6719C14.1115 11.749 14.4678 11.9395 14.7475 12.2192C15.0273 12.4989 15.2177 12.8553 15.2949 13.2433C15.3721 13.6312 15.3325 14.0334 15.1811 14.3988C15.0297 14.7643 14.7734 15.0766 14.4445 15.2964C14.1156 15.5161 13.7289 15.6334 13.3333 15.6334C12.8029 15.6334 12.2942 15.4227 11.9191 15.0477C11.544 14.6726 11.3333 14.1639 11.3333 13.6334Z" fill="#1141CB"/>
<path d="M13.3331 18.3001C13.2431 18.3001 13.1551 18.2914 13.0664 18.2868L15.2084 23.3708C15.8212 22.5499 16.6345 21.9001 17.5704 21.4837C18.5063 21.0673 19.5335 20.8981 20.5535 20.9924C21.5735 21.0868 22.5522 21.4415 23.3959 22.0225C24.2396 22.6035 24.9199 23.3914 25.3717 24.3108L27.1717 20.9381C26.2411 21.0409 25.3011 20.8609 24.4742 20.4217C23.6473 19.9825 22.9719 19.3044 22.536 18.4758C22.1001 17.6472 21.9239 16.7064 22.0304 15.7762C22.1369 14.846 22.5212 13.9694 23.1331 13.2608L17.7864 12.2381C18.0054 12.9369 18.0568 13.6774 17.9365 14.3998C17.8163 15.1222 17.5277 15.8061 17.0941 16.3963C16.6606 16.9865 16.0942 17.4663 15.4408 17.7971C14.7874 18.1278 14.0654 18.3001 13.3331 18.3001Z" fill="#1141CB"/>
<path d="M26.6673 19.6335C27.3266 19.6335 27.9711 19.438 28.5192 19.0718C29.0674 18.7055 29.4946 18.1849 29.7469 17.5758C29.9992 16.9667 30.0652 16.2965 29.9366 15.6499C29.808 15.0033 29.4905 14.4093 29.0243 13.9432C28.5582 13.477 27.9642 13.1595 27.3176 13.0309C26.671 12.9023 26.0008 12.9683 25.3917 13.2206C24.7826 13.4729 24.262 13.9001 23.8958 14.4483C23.5295 14.9965 23.334 15.6409 23.334 16.3002C23.335 17.1839 23.6866 18.0312 24.3115 18.656C24.9364 19.2809 25.7836 19.6325 26.6673 19.6335ZM26.6673 14.3002C27.0629 14.3002 27.4496 14.4175 27.7785 14.6373C28.1074 14.857 28.3637 15.1694 28.5151 15.5348C28.6665 15.9003 28.7061 16.3024 28.6289 16.6904C28.5517 17.0783 28.3612 17.4347 28.0815 17.7144C27.8018 17.9941 27.4455 18.1846 27.0575 18.2618C26.6695 18.3389 26.2674 18.2993 25.902 18.148C25.5365 17.9966 25.2241 17.7402 25.0044 17.4113C24.7846 17.0824 24.6673 16.6958 24.6673 16.3002C24.6673 15.7698 24.878 15.2611 25.2531 14.886C25.6282 14.5109 26.1369 14.3002 26.6673 14.3002Z" fill="#1141CB"/>
<path d="M26.6667 16.9668C27.0349 16.9668 27.3333 16.6683 27.3333 16.3001C27.3333 15.9319 27.0349 15.6334 26.6667 15.6334C26.2985 15.6334 26 15.9319 26 16.3001C26 16.6683 26.2985 16.9668 26.6667 16.9668Z" fill="#1141CB"/>
</svg>
