<svg width="40" height="41" viewBox="0 0 40 41" fill="none" xmlns="http://www.w3.org/2000/svg">
<path fill-rule="evenodd" clip-rule="evenodd" d="M3.61407 12.5088C4.12467 11.743 5.15946 11.536 5.92532 12.0466L8.42532 13.7132C9.19121 14.2238 9.39817 15.2586 8.88759 16.0245C8.37699 16.7903 7.34221 16.9974 6.57632 16.4867L4.07632 14.8201C3.31046 14.3095 3.10349 13.2747 3.61407 12.5088Z" fill="#1141CB"/>
<path fill-rule="evenodd" clip-rule="evenodd" d="M36.3875 12.5088C36.8982 13.2747 36.6912 14.3095 35.9253 14.8201L33.4253 16.4867C32.6595 16.9974 31.6247 16.7903 31.114 16.0245C30.6035 15.2586 30.8105 14.2238 31.5763 13.7132L34.0763 12.0466C34.8422 11.536 35.877 11.743 36.3875 12.5088Z" fill="#1141CB"/>
<path fill-rule="evenodd" clip-rule="evenodd" d="M8.49225 6.85222L6.01843 14.2737L3.21148 17.6415C2.2129 18.8397 1.66602 20.35 1.66602 21.9099V27.6C1.66602 28.2315 2.02495 28.8097 2.58982 29.092L2.82833 29.2085C2.97763 29.2805 3.19158 29.3824 3.45535 29.504C3.98163 29.7469 4.71242 30.0715 5.52763 30.3975C6.33935 30.7222 7.25583 31.0565 8.14962 31.3119C9.0179 31.56 9.97547 31.7667 10.8327 31.7667H29.166C30.0232 31.7667 30.9809 31.56 31.849 31.3119C32.7429 31.0565 33.6594 30.7222 34.471 30.3975C35.2864 30.0715 36.017 29.7469 36.5434 29.504C36.8072 29.3824 37.021 29.2805 37.1704 29.2085C37.245 29.1725 37.3643 29.1138 37.405 29.0938C37.9698 28.8117 38.3327 28.2315 38.3327 27.6V21.9099C38.3327 20.35 37.7859 18.8397 36.7872 17.6415L33.9818 14.2755L31.5074 6.85222C30.8269 4.8105 28.916 3.43335 26.764 3.43335H13.2357C11.0835 3.43335 9.17282 4.8105 8.49225 6.85222ZM13.2357 6.76668C12.5183 6.76668 11.8814 7.22573 11.6545 7.9063L9.81218 13.4333H30.1874L28.345 7.9063C28.1182 7.22573 27.4813 6.76668 26.764 6.76668H13.2357ZM13.8795 28.4334H26.1019L25.3705 26.2397C25.1437 25.559 24.5069 25.1 23.7894 25.1H16.1919C15.4746 25.1 14.8376 25.559 14.6108 26.2397L13.8795 28.4334Z" fill="#1141CB"/>
<path fill-rule="evenodd" clip-rule="evenodd" d="M3.81778 20.0817C4.12652 19.4642 4.87737 19.2138 5.49483 19.5227L8.05433 20.6482C8.67182 20.957 8.92208 21.7078 8.61335 22.3253C8.30462 22.9428 7.55378 23.193 6.9363 22.8843L4.3768 21.7587C3.75933 21.45 3.50905 20.6992 3.81778 20.0817Z" fill="#1141CB"/>
<path fill-rule="evenodd" clip-rule="evenodd" d="M36.1124 20.0752C36.421 20.6925 36.1707 21.4434 35.5534 21.7522L33.0593 22.8857C32.4418 23.1945 31.691 22.9442 31.3822 22.3267C31.0735 21.7092 31.3239 20.9584 31.9414 20.6497L34.4352 19.516C35.0527 19.2074 35.8035 19.4577 36.1124 20.0752Z" fill="#1141CB"/>
<path d="M29.166 33.7667C30.3025 33.7667 31.4717 33.4998 32.3987 33.2348C33.3807 32.9542 34.3657 32.5937 35.2137 32.2545C35.7427 32.043 36.2365 31.8325 36.666 31.6428V34.9033C36.666 35.5345 36.308 36.113 35.7074 36.3073C35.0229 36.5288 34.0288 36.7667 32.916 36.7667C31.8032 36.7667 30.8092 36.5288 30.1247 36.3073C29.524 36.113 29.166 35.5345 29.166 34.9033V33.7667Z" fill="#1141CB"/>
<path d="M10.834 33.7667C9.69757 33.7667 8.52825 33.4998 7.60137 33.2348C6.61925 32.9542 5.63438 32.5937 4.78632 32.2545C4.25728 32.043 3.76345 31.8325 3.33398 31.6428V34.9033C3.33398 35.5345 3.69205 36.113 4.29267 36.3073C4.97722 36.5288 5.97117 36.7667 7.08398 36.7667C8.1968 36.7667 9.19075 36.5288 9.8753 36.3073C10.4759 36.113 10.834 35.5345 10.834 34.9033V33.7667Z" fill="#1141CB"/>
</svg>
