<svg width="16" height="16" viewBox="0 0 16 16" fill="none" xmlns="http://www.w3.org/2000/svg">
<path d="M14.157 6.75867C13.2816 5.29267 11.3169 2.83337 8.00024 2.83337C4.68357 2.83337 2.71883 5.29267 1.8435 6.75867C1.3855 7.524 1.3855 8.47541 1.8435 9.24141C2.71883 10.7074 4.68357 13.1667 8.00024 13.1667C11.3169 13.1667 13.2816 10.7074 14.157 9.24141C14.615 8.47541 14.615 7.52467 14.157 6.75867ZM13.2989 8.72807C12.5322 10.0121 10.8236 12.1667 8.00024 12.1667C5.17691 12.1667 3.46824 10.0127 2.70157 8.72807C2.43357 8.27873 2.43357 7.7207 2.70157 7.27136C3.46824 5.98736 5.17691 3.83272 8.00024 3.83272C10.8236 3.83272 12.5322 5.9867 13.2989 7.27136C13.5676 7.72136 13.5676 8.27873 13.2989 8.72807ZM8.00024 5.16671C6.43757 5.16671 5.16691 6.43804 5.16691 8.00004C5.16691 9.56204 6.43757 10.8334 8.00024 10.8334C9.56291 10.8334 10.8336 9.56204 10.8336 8.00004C10.8336 6.43804 9.56291 5.16671 8.00024 5.16671ZM8.00024 9.83337C6.98891 9.83337 6.16691 9.01137 6.16691 8.00004C6.16691 6.98871 6.98891 6.16671 8.00024 6.16671C9.01157 6.16671 9.83357 6.98871 9.83357 8.00004C9.83357 9.01137 9.01157 9.83337 8.00024 9.83337Z" fill="#444950"/>
</svg>
