<svg width="40" height="41" viewBox="0 0 40 41" fill="none" xmlns="http://www.w3.org/2000/svg">
<g clip-path="url(#clip0_7469_2178)">
<path fill-rule="evenodd" clip-rule="evenodd" d="M23.6113 11.5944C23.0246 11.5944 22.4543 11.2905 22.141 10.7475C21.7629 10.0928 21.873 9.28889 22.3566 8.75842C22.1152 8.7842 21.8801 8.8592 21.6637 8.9842C21.2551 9.22014 20.9629 9.60061 20.841 10.0561C20.7191 10.5115 20.7816 10.9873 21.0176 11.3959C21.2535 11.8045 21.634 12.0967 22.0895 12.2186C22.8129 12.4123 23.5535 12.1256 23.9715 11.5545C23.852 11.5803 23.7309 11.5944 23.6113 11.5944ZM34.6066 5.73342C34.9754 6.37249 34.7559 7.19202 34.1168 7.56077C33.7051 7.79827 33.4105 8.18264 33.2871 8.64358C33.1637 9.10374 33.227 9.5842 33.4652 9.99749L33.4684 10.003C33.7059 10.4147 34.0902 10.7092 34.5512 10.8326C34.7051 10.874 34.8613 10.8944 35.0168 10.8944C35.3254 10.8944 35.6293 10.8131 35.9035 10.6553L38.509 9.15061C38.6166 9.08832 38.6951 8.98591 38.7273 8.86582C38.7595 8.74573 38.7428 8.61777 38.6809 8.50999C38.6186 8.40238 38.5162 8.32386 38.3961 8.29164C38.276 8.25942 38.148 8.27613 38.0402 8.33811L35.4348 9.8428C35.3387 9.89845 35.2325 9.9345 35.1224 9.94885C35.0123 9.9632 34.9005 9.95556 34.7934 9.92639C34.5754 9.8678 34.3926 9.72795 34.2793 9.53186L34.2762 9.52639C34.1637 9.33186 34.1348 9.10452 34.1934 8.88577C34.252 8.66702 34.391 8.48499 34.5855 8.37249C35.6723 7.74514 36.0457 6.35061 35.4184 5.26467L35.3762 5.19124C34.7488 4.10452 33.3543 3.73108 32.2684 4.35842L29.716 5.83186L30.1848 6.64358L32.7371 5.17014C33.3754 4.80139 34.1949 5.02092 34.5637 5.65999L34.6066 5.73342ZM10.0699 6.36155L10.752 8.82092C10.7897 8.95589 10.8705 9.07484 10.9821 9.15972C11.0936 9.24461 11.2298 9.29078 11.3699 9.29124C11.6574 9.29124 11.9121 9.09827 11.9887 8.82092L12.6699 6.36155L15.1301 5.6803C15.265 5.64251 15.384 5.56172 15.4689 5.45019C15.5538 5.33866 15.5999 5.20248 15.6004 5.06233C15.6004 4.77483 15.4066 4.52092 15.1301 4.44436L12.6699 3.76233L11.9887 1.30295C11.9121 1.02639 11.6574 0.832642 11.3699 0.832642C11.0832 0.832642 10.8285 1.02639 10.752 1.30295L10.0699 3.76233L7.61055 4.44358C7.47558 4.48136 7.35663 4.56215 7.27175 4.67368C7.18686 4.78521 7.14069 4.92139 7.14023 5.06155C7.14023 5.34905 7.33398 5.60295 7.61055 5.67952L10.0699 6.36155ZM10.9027 5.85608C10.8811 5.77812 10.8396 5.70709 10.7824 5.64987C10.7252 5.59266 10.6541 5.5512 10.5762 5.52952L8.88945 5.06233L10.5762 4.59436C10.6542 4.5728 10.7253 4.53138 10.7825 4.47414C10.8398 4.41691 10.8812 4.34581 10.9027 4.2678L11.3699 2.58108L11.8379 4.2678C11.8595 4.34581 11.9009 4.41691 11.9581 4.47414C12.0153 4.53138 12.0864 4.5728 12.1645 4.59436L13.8512 5.06155L12.1645 5.52874C12.0864 5.5503 12.0153 5.59172 11.9581 5.64895C11.9009 5.70619 11.8595 5.77728 11.8379 5.8553L11.3699 7.54202L10.9027 5.85608ZM5.16367 9.54983L6.17852 9.83108L5.16367 10.1123C5.08565 10.1339 5.01456 10.1753 4.95732 10.2325C4.90009 10.2898 4.85867 10.3609 4.83711 10.4389L4.55586 11.4537L4.27461 10.4389C4.25305 10.3609 4.21163 10.2898 4.15439 10.2325C4.09716 10.1753 4.02606 10.1339 3.94805 10.1123L2.9332 9.83108L3.94805 9.54983C4.02606 9.52827 4.09716 9.48685 4.15439 9.42961C4.21163 9.37238 4.25305 9.30128 4.27461 9.22327L4.55586 8.20842L4.83711 9.22327C4.85867 9.30128 4.90009 9.37238 4.95732 9.42961C5.01456 9.48685 5.08565 9.52827 5.16367 9.54983ZM5.14023 12.8545C5.06836 13.1162 4.82773 13.299 4.55586 13.299C4.28398 13.299 4.04414 13.1162 3.97148 12.8545L3.4418 10.9451L1.53242 10.4155C1.40482 10.3797 1.29237 10.3033 1.21214 10.1978C1.13191 10.0924 1.08828 9.96359 1.08789 9.83108C1.08789 9.5592 1.2707 9.31936 1.53242 9.24592L3.4418 8.71702L3.97148 6.80764C4.04414 6.54592 4.28398 6.36311 4.55586 6.36311C4.82773 6.36311 5.06836 6.54592 5.14023 6.80764L5.66992 8.71702L7.5793 9.24592C7.84102 9.31858 8.02383 9.5592 8.02383 9.83108C8.02383 10.103 7.84102 10.3428 7.5793 10.4155L5.66992 10.9451L5.14023 12.8545ZM3.60508 20.6123H5.30898L6.5043 18.1264C6.37695 17.9576 6.2043 17.8725 5.9918 17.8725H2.56055C2.43108 17.8726 2.30604 17.9196 2.20853 18.0048C2.11102 18.0899 2.04763 18.2075 2.03008 18.3358L2.63242 19.9397C2.78789 20.3545 3.16055 20.6123 3.60508 20.6123ZM8.67383 36.3569V34.4342H4.39258C4.19805 34.4342 4.00742 34.4155 3.82227 34.3819V36.3569C3.82227 37.0155 4.35742 37.5506 5.01602 37.5506H7.48008C8.13789 37.5506 8.67383 37.0155 8.67383 36.3569ZM35.4434 34.4342H31.1629V36.3569C31.1629 37.0155 31.698 37.5506 32.3559 37.5506H34.8199C35.4785 37.5506 36.0137 37.0155 36.0137 36.3569V34.3819C35.8285 34.4155 35.6387 34.4342 35.4434 34.4342ZM28.3199 26.9475C28.5379 27.7608 29.3012 28.2694 30.1355 28.1569C30.4637 28.1131 30.802 28.0787 31.1285 28.0467C32.3309 27.9272 33.5746 27.8045 34.027 27.1444C34.3004 26.7459 34.3168 26.1006 34.0754 25.228C34.0184 25.0178 33.8855 24.8451 33.6988 24.7373C33.5746 24.6655 33.4371 24.6287 33.2973 24.6287C33.2285 24.6287 33.159 24.6373 33.0902 24.6561L28.4332 25.9037C28.385 25.9165 28.3399 25.9388 28.3005 25.9692C28.261 25.9997 28.2281 26.0377 28.2035 26.0811C28.1782 26.124 28.1617 26.1715 28.155 26.2209C28.1483 26.2703 28.1515 26.3205 28.1645 26.3686L28.3199 26.9475ZM26.1793 31.1975H13.6566C12.316 31.1975 11.2066 32.2014 11.0387 33.4967H28.7973C28.6293 32.2022 27.5199 31.1975 26.1793 31.1975ZM11.6332 26.0811C11.5816 25.9928 11.5004 25.9295 11.4035 25.9037L6.7457 24.6561C6.67823 24.6377 6.6086 24.6285 6.53867 24.6287C6.39883 24.6287 6.26133 24.6655 6.13711 24.7373C6.04554 24.7896 5.96524 24.8596 5.90088 24.9431C5.83651 25.0267 5.78934 25.1222 5.76211 25.224C5.51914 26.1006 5.53555 26.7451 5.80898 27.1444C6.26133 27.8045 7.50508 27.928 8.70742 28.0467C9.03398 28.0787 9.37227 28.1131 9.70039 28.1569C10.534 28.2701 11.298 27.7608 11.516 26.9475L11.6715 26.3686C11.6973 26.2709 11.6832 26.1686 11.6332 26.0811ZM32.802 21.2881C35.5746 21.4655 37.666 23.5444 37.666 26.1233V31.2756C37.666 32.5006 36.6691 33.4975 35.4434 33.4975H29.741C29.5684 31.6842 28.0371 30.2608 26.1793 30.2608H13.6566C11.7988 30.2608 10.2676 31.6842 10.0949 33.4975H4.39258C3.1668 33.4975 2.16992 32.5006 2.16992 31.2756V26.1233C2.16992 23.5631 4.26289 21.485 7.03711 21.2881C15.152 20.7131 23.8199 20.7131 32.802 21.2881ZM12.4449 25.6115C12.5318 25.7612 12.5881 25.9265 12.6108 26.098C12.6335 26.2695 12.622 26.4437 12.577 26.6108L12.4215 27.1905C12.116 28.3311 11.0746 29.1092 9.9207 29.1092C9.80664 29.1092 9.69102 29.1014 9.57539 29.0858C9.26367 29.0436 8.93398 29.0108 8.61523 28.9795C7.19883 28.8389 5.73477 28.6944 5.03555 27.674C4.59258 27.0272 4.53398 26.1451 4.85742 24.9772C4.97695 24.5326 5.26445 24.1576 5.66836 23.9248C6.07148 23.692 6.54023 23.6303 6.98867 23.7498L11.6457 24.9975C11.9848 25.0889 12.2684 25.3069 12.4449 25.6115ZM28.1902 24.9983L32.8473 23.7506C33.2957 23.6303 33.7645 23.6928 34.1676 23.9256C34.5715 24.1584 34.8598 24.5334 34.9793 24.9819C35.302 26.1459 35.2434 27.028 34.8004 27.6748C34.1012 28.6944 32.6371 28.8397 31.2207 28.9803C30.902 29.0115 30.5723 29.0444 30.2605 29.0865C30.1449 29.1022 30.0293 29.11 29.9152 29.11C28.7613 29.11 27.7199 28.3326 27.4145 27.1912L27.259 26.6115C27.1684 26.2725 27.2152 25.9178 27.391 25.6123C27.5668 25.3069 27.8512 25.0889 28.1902 24.9983ZM37.2707 17.8639H33.8402C33.627 17.8639 33.4543 17.9498 33.327 18.1178L34.5223 20.6037H36.2262C36.6707 20.6037 37.0434 20.3451 37.1988 19.9295L37.8012 18.3256C37.7668 18.0662 37.5418 17.8639 37.2707 17.8639ZM27.2637 13.3405C28.9699 13.3405 30.4301 14.2584 31.1699 15.7959L33.3887 20.4076C33.2152 20.3826 33.0402 20.3639 32.8613 20.3522C23.8379 19.7748 15.1277 19.7748 6.97148 20.3522C6.79336 20.3647 6.61836 20.385 6.4457 20.4108L8.66602 15.7959C9.40586 14.2584 10.866 13.3405 12.5723 13.3405H17.9246C18.6246 14.4865 19.7465 15.3764 21.1434 15.7506C21.6113 15.8756 22.0816 15.9358 22.5457 15.9358C24.4301 15.9358 26.1926 14.9436 27.1738 13.3397H27.2637V13.3405ZM27.2613 6.91702C27.323 6.99202 27.4066 7.0467 27.502 7.07249C27.6223 7.10452 27.7504 7.08811 27.8574 7.02561L28.9543 6.3928L29.3191 7.02483L28.2223 7.65764C28.1261 7.71325 28.0529 7.80119 28.0155 7.90578C27.9782 8.01037 27.9792 8.12482 28.0184 8.22874L23.9863 10.5561C23.6254 10.7647 23.1613 10.6405 22.9527 10.2795C22.7441 9.9178 22.8684 9.45452 23.2293 9.24514L27.2613 6.91702ZM21.1949 8.1717C20.5699 8.53264 20.1223 9.11545 19.9355 9.81311C19.5496 11.253 20.4074 12.7381 21.8473 13.124C22.0809 13.1865 22.3152 13.2162 22.5457 13.2162C23.7395 13.2162 24.834 12.4186 25.1574 11.2123C25.1824 11.1186 25.2027 11.0233 25.2176 10.9272L26.991 9.90295C27.0715 10.4912 27.034 11.0936 26.8793 11.6733C26.2387 14.0623 23.7746 15.485 21.3855 14.8451C18.9973 14.2045 17.5738 11.7405 18.2145 9.35139C18.8543 6.96233 21.3184 5.53967 23.7074 6.17952C24.2841 6.33437 24.8243 6.60232 25.2965 6.9678L23.523 7.99202C23.4326 7.95678 23.3403 7.92653 23.2465 7.90139C22.5488 7.71467 21.8207 7.81077 21.1949 8.1717Z" fill="#1141CB"/>
</g>
<defs>
<clipPath id="clip0_7469_2178">
<rect width="40" height="40" fill="white" transform="translate(0 0.0999756)"/>
</clipPath>
</defs>
</svg>
