<svg width="25" height="25" viewBox="0 0 25 25" fill="none" xmlns="http://www.w3.org/2000/svg">
<g id="configuration-01">
<path id="Vector" d="M2.5901 16.1322C2.62406 15.809 2.85827 15.5485 3.3267 15.0276L4.35777 13.8749C4.6098 13.5558 4.78865 13 4.78865 12.4998C4.78865 12 4.60974 11.444 4.35774 11.125L3.3267 9.97231C2.85827 9.45137 2.62405 9.1909 2.5901 8.86768C2.55614 8.54446 2.7311 8.24083 3.08101 7.63358L3.57459 6.77698C3.94789 6.12915 4.13453 5.80523 4.45211 5.67607C4.76969 5.5469 5.12885 5.64883 5.84719 5.85267L7.06742 6.19637C7.52603 6.30212 8.00718 6.24213 8.42593 6.02698L8.76281 5.83261C9.12189 5.60262 9.39809 5.26352 9.55097 4.86493L9.88493 3.86754C10.1045 3.20753 10.2143 2.87752 10.4756 2.68876C10.737 2.5 11.0842 2.5 11.7785 2.5H12.8933C13.5877 2.5 13.9349 2.5 14.1962 2.68876C14.4576 2.87752 14.5674 3.20753 14.787 3.86754L15.1209 4.86493C15.2738 5.26352 15.55 5.60262 15.9091 5.83261L16.246 6.02698C16.6647 6.24213 17.1459 6.30212 17.6045 6.19637L18.8247 5.85267C19.543 5.64883 19.9022 5.5469 20.2198 5.67607C20.5374 5.80523 20.724 6.12915 21.0973 6.77698L21.5909 7.63358C21.9408 8.24083 22.1157 8.54446 22.0818 8.86768C22.0478 9.1909 21.8136 9.45137 21.3452 9.97231L20.3141 11.125C20.0622 11.444 19.8832 12 19.8832 12.4998C19.8832 13 20.0621 13.5558 20.3141 13.8749L21.3452 15.0276C21.8136 15.5485 22.0478 15.809 22.0818 16.1322C22.1157 16.4555 21.9408 16.7591 21.5909 17.3663L21.0973 18.2229C20.724 18.8707 20.5374 19.1947 20.2198 19.3238C19.9022 19.453 19.543 19.3511 18.8247 19.1472L17.6045 18.8035C17.1458 18.6977 16.6646 18.7578 16.2458 18.973L15.909 19.1674C15.5499 19.3974 15.2738 19.7364 15.121 20.135L14.787 21.1325C14.5674 21.7925 14.4576 22.1225 14.1962 22.3112C13.9349 22.5 13.5877 22.5 12.8933 22.5H11.7785C11.0842 22.5 10.737 22.5 10.4756 22.3112C10.2143 22.1225 10.1045 21.7925 9.88493 21.1325" stroke="#434343" stroke-width="1.5" stroke-linecap="round"/>
<path id="Vector_2" d="M3.07094 19.2798C4.15094 18.1998 7.82294 14.5638 8.18294 14.1438C8.56351 13.6998 8.25494 13.0998 8.43854 11.2398C8.52738 10.3398 8.72097 9.66555 9.27494 9.1638C9.93494 8.5398 10.475 8.5398 12.335 8.49781C13.955 8.5398 14.147 8.3598 14.315 8.77981C14.435 9.07981 14.075 9.2598 13.643 9.73981C12.683 10.6998 12.119 11.1798 12.065 11.4798C11.675 12.7998 13.211 13.5798 14.051 12.7398C14.3686 12.4221 15.839 10.9398 15.983 10.8198C16.091 10.7238 16.3495 10.7284 16.475 10.8798C16.583 10.9859 16.595 10.9998 16.583 11.4798C16.5719 11.9241 16.5768 12.562 16.5782 13.2198C16.5799 14.0721 16.535 15.0198 16.175 15.4998C15.455 16.5798 14.255 16.6398 13.175 16.6878C12.155 16.7478 11.315 16.6398 11.051 16.8318C10.835 16.9398 9.69494 18.1398 8.31494 19.5198L5.85494 21.9798C3.81494 23.5998 1.57094 21.0798 3.07094 19.2798Z" stroke="#434343" stroke-width="1.5" stroke-linecap="round"/>
</g>
</svg>
