<svg width="25" height="25" viewBox="0 0 25 25" fill="none" xmlns="http://www.w3.org/2000/svg">
<g id="service">
<path id="Vector" d="M19.7513 16.2133C23.702 11.2038 22.6347 6.23508 19.7966 4.49415C17.1149 2.84923 14.7744 3.51211 13.3684 4.56801L12.3338 5.34158M19.7513 16.2133C18.803 17.4156 17.5657 18.6204 15.9945 19.7834C14.4483 20.9278 13.6752 21.5 12.334 21.5C10.9928 21.5 10.2197 20.9278 8.67351 19.7834C0.555704 13.7749 1.35205 6.65293 4.87142 4.49415C7.55307 2.84923 9.8936 3.51211 11.2996 4.56801L12.3338 5.34158M19.7513 16.2133L14.2261 9.94479C13.9999 9.6882 13.6213 9.63296 13.3312 9.81424L11.1451 11.1806C10.3758 11.6614 9.37732 11.5532 8.72888 10.9187C7.87235 10.0806 7.95877 8.67769 8.91168 7.95106L12.3338 5.34158" stroke="#151C24" stroke-width="1.5" stroke-linecap="round" stroke-linejoin="round"/>
</g>
</svg>
