<svg width="20" height="19" viewBox="0 0 20 19" fill="none" xmlns="http://www.w3.org/2000/svg">
<path d="M9.99899 18.7501C9.89299 18.7501 9.78696 18.728 9.68796 18.683C9.36096 18.534 1.665 14.9651 0.430999 8.60906C-0.0460008 6.15006 0.433005 3.75105 1.71201 2.19305C2.747 0.931045 4.23496 0.260029 6.01596 0.251029C6.02496 0.251029 6.03396 0.251029 6.04196 0.251029C8.07396 0.251029 9.31301 1.40806 9.99802 2.39306C10.686 1.40406 11.9349 0.242029 13.9799 0.251029C15.7619 0.260029 17.251 0.931045 18.287 2.19305C19.564 3.75005 20.0419 6.14904 19.5639 8.61004C18.3319 14.966 10.635 18.5361 10.308 18.6841C10.211 18.7281 10.105 18.7501 9.99899 18.7501ZM6.04098 1.75005C6.03498 1.75005 6.03002 1.75005 6.02402 1.75005C4.68602 1.75605 3.62604 2.22503 2.87204 3.14403C1.87304 4.36103 1.51202 6.29705 1.90402 8.32305C2.85902 13.247 8.59199 16.447 9.99899 17.165C11.406 16.447 17.139 13.247 18.093 8.32305C18.487 6.29605 18.126 4.36003 17.129 3.14403C16.375 2.22603 15.315 1.75803 13.974 1.75103C13.968 1.75103 13.962 1.75103 13.957 1.75103C11.585 1.75103 10.7441 4.12806 10.7101 4.22906C10.6061 4.53206 10.32 4.73803 9.99997 4.73803C9.99797 4.73803 9.99694 4.73803 9.99594 4.73803C9.67494 4.73703 9.38896 4.53204 9.28696 4.22704C9.25396 4.12704 8.41198 1.75005 6.04098 1.75005Z" fill="#777980"/>
</svg>
