<svg width="32" height="33" viewBox="0 0 32 33" fill="none" xmlns="http://www.w3.org/2000/svg">
<path d="M14 22.5H18" stroke="#434343" stroke-width="1.5" stroke-linecap="round" stroke-linejoin="round"/>
<path d="M6.35139 17.7135C5.99837 15.4162 5.82186 14.2676 6.25617 13.2494C6.69047 12.2311 7.65403 11.5344 9.58114 10.1411L11.021 9.1C13.4183 7.36667 14.6169 6.5 16 6.5C17.3831 6.5 18.5817 7.36667 20.979 9.1L22.4189 10.1411C24.346 11.5344 25.3095 12.2311 25.7438 13.2494C26.1781 14.2676 26.0016 15.4162 25.6486 17.7135L25.3476 19.6724C24.8471 22.9289 24.5969 24.5572 23.429 25.5286C22.2611 26.5 20.5537 26.5 17.1388 26.5H14.8612C11.4463 26.5 9.73891 26.5 8.571 25.5286C7.40309 24.5572 7.15287 22.9289 6.65243 19.6724L6.35139 17.7135Z" stroke="#434343" stroke-width="1.5" stroke-linejoin="round"/>
</svg>
