<svg width="40" height="41" viewBox="0 0 40 41" fill="none" xmlns="http://www.w3.org/2000/svg">
<path d="M17.478 32.8782C17.4936 32.9016 17.5014 32.9329 17.5014 32.9641L18.5405 38.1282H21.4546L22.5014 32.9563C22.5093 32.9329 22.5171 32.9016 22.5249 32.8704L25.1421 26.6047H14.8608L17.478 32.8782ZM17.9546 27.9485C17.9546 27.4954 18.3218 27.1282 18.7749 27.1282H21.2749C21.728 27.1282 22.0952 27.4954 22.0952 27.9485V31.1594C22.0952 31.6125 21.728 31.9797 21.2749 31.9797H18.7749C18.3218 31.9797 17.9546 31.6125 17.9546 31.1594V27.9485ZM25.9858 17.3625C23.5093 21.9329 27.9233 27.2688 32.8686 25.7532V25.7454C36.6889 24.6516 38.3139 19.7219 35.8452 16.6204V16.6125C33.3764 13.2063 27.9155 13.6282 25.9858 17.3625ZM31.1577 18.4172C33.1186 18.4719 33.1108 21.3313 31.1577 21.3782C29.2046 21.3313 29.1968 18.4641 31.1577 18.4172ZM35.978 20.136C35.978 22.3704 34.3999 24.3469 32.2202 24.8391C31.9546 24.9016 31.6733 24.6907 31.6811 24.4094V22.0188C31.6577 21.7688 31.9468 21.6125 32.0483 21.4329L32.9468 19.8704C33.0483 19.7063 33.0639 19.4563 33.2749 19.3782L35.1655 18.4875C36.0014 18.1985 35.9233 19.6438 35.978 20.136ZM27.6108 16.8782C29.4389 14.7922 32.9077 14.8079 34.728 16.9016C34.9311 17.1047 34.853 17.4875 34.5874 17.5969C34.4858 17.6282 32.7202 18.511 32.6499 18.4641C32.4468 18.4485 32.2202 18.3 32.0483 18.3235H30.2514C30.0327 18.3 29.7358 18.5344 29.4936 18.4094L27.7358 17.5813C27.478 17.4641 27.4077 17.0891 27.6108 16.8782ZM27.1577 18.4563L29.0249 19.3391C29.2436 19.4329 29.2593 19.6907 29.3608 19.8625L30.2593 21.4329C30.353 21.5969 30.6577 21.7688 30.6343 22.011V24.4016C30.6421 24.675 30.3608 24.8938 30.0952 24.8313C27.4233 24.2688 25.6968 21.3313 26.5405 18.7219C26.6186 18.4719 26.9233 18.3469 27.1577 18.4563ZM39.103 18.6125V21.5266C39.103 23.8391 37.2358 25.7141 34.9233 25.7297C37.7202 23.8938 38.7514 19.9329 37.1264 16.9875L37.9155 17.1438C38.603 17.2844 39.103 17.9016 39.103 18.6125ZM5.20457 21.5657H16.4468V23.6438C16.4468 23.8 16.3218 23.925 16.1655 23.925H5.47801C5.32176 23.925 5.19676 23.8 5.19676 23.6438V21.5657H5.20457ZM0.899886 21.5657H4.31395V23.6438C4.31395 24.2844 4.83739 24.8079 5.47801 24.8079H16.1655C16.8061 24.8079 17.3296 24.2844 17.3296 23.6438V21.5657H24.5639C24.9311 23.2532 25.9624 24.761 27.3843 25.7297H5.10301C2.79832 25.7297 0.923323 23.8626 0.899886 21.5657ZM0.899886 19.5891H24.4233C24.4077 19.7688 24.3999 19.9485 24.3999 20.1282C24.3999 20.3157 24.4077 20.4954 24.4233 20.675C17.9936 20.6672 7.3452 20.636 0.899886 20.675V19.5891ZM0.899886 18.7063C0.860823 17.9719 1.36082 17.2922 2.08739 17.1438L10.0249 15.5344C15.5718 14.4094 21.2046 14.2219 26.7905 14.9954C25.6811 15.9485 24.8608 17.2844 24.5639 18.7141H0.899886V18.7063ZM27.2671 19.4875L28.478 20.0579C28.5171 20.1985 29.4155 21.7063 29.4936 21.8782C29.5561 21.9876 29.6421 22.0969 29.7514 22.2063V23.8157C28.0483 23.175 26.9468 21.3157 27.2671 19.4875ZM29.7124 17.5266L28.7046 17.0579C30.0952 15.9094 32.2436 15.9172 33.6264 17.0735L32.6343 17.5422C32.4389 17.4719 32.2436 17.4407 32.0483 17.4407C31.6343 17.4641 30.0952 17.3704 29.7124 17.5266ZM32.5639 22.2063C32.8686 21.8547 33.603 20.511 33.8218 20.0969L35.0483 19.5188C35.0874 19.7297 35.0952 19.9329 35.0952 20.136C35.0952 21.7766 34.0561 23.2375 32.5639 23.8157V22.2063ZM21.2124 31.1047H18.8374V28.0188H21.2124V31.1047ZM31.7593 19.8938C31.7436 20.6829 30.5718 20.6829 30.5561 19.8938C30.5718 19.1125 31.7436 19.1125 31.7593 19.8938ZM39.4936 4.6438C33.2046 3.80786 26.8139 3.37817 20.4624 3.36255V3.97192H19.5796V3.36255C13.2124 3.37036 6.7827 3.81567 0.462386 4.6438C0.243636 4.6438 0.0483234 4.47974 0.0248859 4.26099C-0.0141766 4.0188 0.165511 3.80005 0.399886 3.7688C13.3921 2.04224 26.6186 2.04224 39.6108 3.7688C40.1811 3.84692 40.0561 4.71411 39.4936 4.6438ZM16.6264 6.36255C16.5093 6.36255 16.4155 6.2688 16.4155 6.15161V5.05786C16.4155 4.94067 16.5093 4.84692 16.6264 4.84692H23.4233C23.5405 4.84692 23.6343 4.94067 23.6343 5.05786V6.15942C23.6343 6.27661 23.5405 6.37036 23.4233 6.37036H16.6264V6.36255ZM32.1343 31.1282H34.0327C35.0796 31.1282 35.9389 31.9797 35.9389 33.0344V33.5813H30.228V33.0344C30.228 31.9797 31.0796 31.1282 32.1343 31.1282ZM39.103 35.9563V38.1282H27.0483V35.9563C27.0483 35.136 27.7202 34.4641 28.5405 34.4641H37.6108C38.4389 34.4641 39.103 35.136 39.103 35.9563ZM7.87645 31.1282C8.92332 31.1282 9.7827 31.9797 9.7827 33.0344V33.5813H4.07957V33.0344C4.07957 31.9797 4.93895 31.1282 5.98582 31.1282H7.87645ZM12.9624 35.9563V38.1282H0.899886V35.9563C0.899886 35.136 1.57176 34.4641 2.39207 34.4641H11.4624C12.2905 34.4641 12.9624 35.136 12.9624 35.9563ZM3.19676 11.8782C3.19676 12.4563 4.07957 12.4563 4.07957 11.8782C4.07957 10.8782 4.89207 10.0657 5.89207 10.0657C6.4702 10.0657 6.4702 9.18286 5.89207 9.18286C4.89207 9.18286 4.07957 8.37036 4.07957 7.37036C4.07957 6.79224 3.19676 6.79224 3.19676 7.37036C3.19676 8.37036 2.38426 9.18286 1.38426 9.18286C0.806136 9.18286 0.806136 10.0657 1.38426 10.0657C2.38426 10.0657 3.19676 10.8782 3.19676 11.8782ZM3.63426 8.84692C3.83739 9.15161 4.10301 9.41724 4.4077 9.62036C4.10301 9.82349 3.83739 10.0891 3.63426 10.3938C3.43114 10.0891 3.16551 9.82349 2.86082 9.62036C3.16551 9.42505 3.43114 9.15942 3.63426 8.84692ZM31.2827 9.05786C31.2827 9.63599 32.1655 9.63599 32.1655 9.05786C32.1655 8.27661 32.7983 7.6438 33.5796 7.6438C34.1577 7.6438 34.1577 6.76099 33.5796 6.76099C32.7983 6.76099 32.1655 6.12817 32.1655 5.34692C32.1655 4.7688 31.2827 4.7688 31.2827 5.34692C31.2827 6.12817 30.6499 6.76099 29.8686 6.76099C29.2905 6.76099 29.2905 7.6438 29.8686 7.6438C30.6499 7.6438 31.2827 8.27661 31.2827 9.05786ZM31.728 6.69849C31.8686 6.8938 32.0405 7.05786 32.228 7.19849C32.0327 7.33911 31.8686 7.51099 31.728 7.69849C31.5874 7.50317 31.4155 7.33911 31.228 7.19849C31.4155 7.06567 31.5874 6.8938 31.728 6.69849ZM14.1968 29.6516C13.6108 29.6516 13.1343 29.175 13.1343 28.5891C13.1343 28.3469 12.9389 28.1516 12.6968 28.1516C12.4546 28.1516 12.2593 28.3469 12.2593 28.5891C12.2593 29.175 11.7827 29.6516 11.1968 29.6516C10.6186 29.6594 10.6186 30.5266 11.1968 30.5344C11.7827 30.5344 12.2593 31.011 12.2593 31.5969C12.2671 32.175 13.1343 32.175 13.1421 31.5969C13.1421 31.011 13.6186 30.5344 14.2046 30.5344C14.7749 30.5266 14.7749 29.6672 14.1968 29.6516ZM12.6889 30.3625C12.6108 30.2688 12.5171 30.175 12.4233 30.0969C12.5171 30.011 12.6108 29.925 12.6889 29.8235C12.7671 29.925 12.8608 30.011 12.9624 30.0969C12.8608 30.175 12.7749 30.2688 12.6889 30.3625Z" fill="#1141CB"/>
</svg>
