<svg width="14" height="14" viewBox="0 0 14 14" fill="none" xmlns="http://www.w3.org/2000/svg">
<path d="M3.5026 10.5C2.77651 10.731 2.33594 11.1907 2.33594 11.523C2.33594 12.2467 4.42527 12.8333 7.0026 12.8333C9.57995 12.8333 11.6693 12.2467 11.6693 11.523C11.6693 11.1907 11.2287 10.731 10.5026 10.5" stroke="#777980" stroke-width="0.875" stroke-linecap="round" stroke-linejoin="round"/>
<path d="M8.45573 5.25033C8.45573 6.05573 7.8028 6.70866 6.9974 6.70866C6.19199 6.70866 5.53906 6.05573 5.53906 5.25033C5.53906 4.44491 6.19199 3.79199 6.9974 3.79199C7.8028 3.79199 8.45573 4.44491 8.45573 5.25033Z" stroke="#777980" stroke-width="0.875" stroke-linecap="round" stroke-linejoin="round"/>
<path d="M11.0807 5.36699C11.0807 8.15585 8.1045 9.92434 7.23388 10.382C7.08402 10.4608 6.91077 10.4608 6.76091 10.382C5.89029 9.92434 2.91406 8.15585 2.91406 5.36699C2.91406 3.0474 4.74224 1.16699 6.9974 1.16699C9.25256 1.16699 11.0807 3.0474 11.0807 5.36699Z" stroke="#777980" stroke-width="0.875" stroke-linecap="round" stroke-linejoin="round"/>
</svg>
