<svg width="24" height="24" viewBox="0 0 24 24" fill="none" xmlns="http://www.w3.org/2000/svg">
<path fill-rule="evenodd" clip-rule="evenodd" d="M11.5412 2.0015C14.1631 1.93735 16.1542 3.94579 16.2492 6.3353C16.2711 6.88715 15.8415 7.35229 15.2897 7.37423C14.7379 7.39616 14.2727 6.96658 14.2508 6.41473C14.1985 5.10037 13.1031 3.96388 11.5901 4.0009C11.268 4.00878 10.8273 4.12457 9.57261 4.47848C6.79407 5.26222 4.82159 6.4599 4.34088 8.91093C4.25456 9.35106 4.25002 9.86248 4.25002 11.1627V12.8373C4.25002 14.1375 4.25456 14.649 4.34088 15.0891C4.82159 17.5401 6.79407 18.7378 9.57261 19.5215C10.8273 19.8754 11.268 19.9912 11.5901 19.9991C13.1031 20.0361 14.1985 18.8996 14.2508 17.5853C14.2727 17.0334 14.7379 16.6038 15.2897 16.6258C15.8415 16.6477 16.2711 17.1128 16.2492 17.6647C16.1542 20.0542 14.1631 22.0627 11.5412 21.9985C10.9317 21.9836 10.2239 21.7837 9.18755 21.491C9.13575 21.4764 9.08313 21.4615 9.02967 21.4464C6.08519 20.6159 3.08954 19.1006 2.37827 15.474C2.24978 14.8189 2.24987 14.0995 2.25001 12.9537C2.25001 12.9154 2.25002 12.8766 2.25002 12.8373V11.1627C2.25002 11.1234 2.25001 11.0846 2.25001 11.0463C2.24987 9.90053 2.24978 9.18113 2.37827 8.52601C3.08955 4.89942 6.08519 3.38413 9.02967 2.55359C9.08314 2.53851 9.13576 2.52365 9.18756 2.50902C10.224 2.21629 10.9317 2.01641 11.5412 2.0015Z" fill="white"/>
<path d="M9.75 13.0059C9.19771 13.0059 8.75 12.5581 8.75 12.0059C8.75 11.4536 9.19771 11.0059 9.75 11.0059H17.2501V10.4116C17.2499 10.236 17.2498 10.0203 17.2718 9.84387L17.2723 9.84053C17.288 9.71408 17.3599 9.13804 17.9255 8.86368C18.4923 8.58872 18.9924 8.89065 19.1006 8.95597L19.5691 9.29511C19.9449 9.58975 20.4594 9.99545 20.8504 10.3759C21.0455 10.5657 21.2468 10.783 21.4056 11.0139C21.5468 11.2191 21.7501 11.5693 21.7501 12C21.7501 12.4307 21.5468 12.7809 21.4056 12.9861C21.2468 13.217 21.0455 13.4343 20.8504 13.6241C20.4594 14.0046 19.945 14.4102 19.5691 14.7049L19.1006 15.044C18.9924 15.1093 18.4923 15.4113 17.9255 15.1363C17.3599 14.862 17.288 14.2859 17.2723 14.1595L17.2718 14.1561C17.2498 13.9797 17.2499 13.764 17.2501 13.5884V13.0059H9.75Z" fill="white"/>
</svg>
