<svg width="28" height="26" viewBox="0 0 28 26" fill="none" xmlns="http://www.w3.org/2000/svg">
<g filter="url(#filter0_d_7306_10809)">
<path d="M9.83203 7.0835L12.2837 8.53302C13.713 9.3781 14.2843 9.3781 15.7137 8.53302L18.1654 7.0835" stroke="#B4B4B4" stroke-width="1.5" stroke-linecap="round" stroke-linejoin="round"/>
<path d="M5.67915 11.2298C5.73363 13.7844 5.76087 15.0617 6.70348 16.0079C7.64609 16.9541 8.95796 16.987 11.5817 17.0529C13.1988 17.0936 14.7999 17.0936 16.417 17.0529C19.0407 16.987 20.3526 16.9541 21.2952 16.0079C22.2378 15.0617 22.2651 13.7844 22.3195 11.2298C22.3371 10.4084 22.3371 9.59181 22.3195 8.77041C22.2651 6.2158 22.2378 4.93849 21.2952 3.9923C20.3526 3.04611 19.0407 3.01315 16.417 2.94722C14.7999 2.90659 13.1988 2.90659 11.5817 2.94722C8.95796 3.01313 7.64608 3.04609 6.70348 3.99229C5.76087 4.93848 5.73363 6.21579 5.67915 8.7704C5.66164 9.5918 5.66164 10.4084 5.67915 11.2298Z" stroke="#B4B4B4" stroke-width="1.5" stroke-linejoin="round"/>
</g>
<defs>
<filter id="filter0_d_7306_10809" x="0" y="0" width="28" height="28" filterUnits="userSpaceOnUse" color-interpolation-filters="sRGB">
<feFlood flood-opacity="0" result="BackgroundImageFix"/>
<feColorMatrix in="SourceAlpha" type="matrix" values="0 0 0 0 0 0 0 0 0 0 0 0 0 0 0 0 0 0 127 0" result="hardAlpha"/>
<feOffset dy="4"/>
<feGaussianBlur stdDeviation="2"/>
<feComposite in2="hardAlpha" operator="out"/>
<feColorMatrix type="matrix" values="0 0 0 0 0 0 0 0 0 0 0 0 0 0 0 0 0 0 0.25 0"/>
<feBlend mode="normal" in2="BackgroundImageFix" result="effect1_dropShadow_7306_10809"/>
<feBlend mode="normal" in="SourceGraphic" in2="effect1_dropShadow_7306_10809" result="shape"/>
</filter>
</defs>
</svg>
