<svg width="24" height="24" viewBox="0 0 24 24" fill="none" xmlns="http://www.w3.org/2000/svg">
<g clip-path="url(#clip0_7707_1247)">
<path d="M23.9424 23.0631L19.7073 13.1823C19.6528 13.0554 19.5623 12.9472 19.447 12.8712C19.3317 12.7952 19.1967 12.7546 19.0585 12.7546H16.3689C17.4575 10.8529 18.3527 8.74804 18.3527 6.96717C18.3527 -2.20388 5.64738 -2.31573 5.64738 6.96717C5.64738 8.74804 6.54255 10.8528 7.63113 12.7546H4.94148C4.80336 12.7546 4.66826 12.7951 4.55295 12.8711C4.43763 12.9472 4.34715 13.0554 4.29273 13.1823L0.0576724 23.0631C-0.141546 23.5278 0.199797 24.0469 0.706422 24.0469H23.2936C23.7992 24.0469 24.1419 23.5289 23.9424 23.0631ZM18.5929 14.1661L20.6827 19.0415C20.6173 19.0755 13.8157 22.6074 13.767 22.6353H12.2895C12.2522 22.5936 12.5696 22.9127 7.96933 18.3129L10.5245 17.0051C11.0455 17.67 11.4104 18.0924 11.4674 18.158C11.7486 18.4817 12.2516 18.4812 12.5325 18.158C12.6506 18.0221 14.0894 16.3549 15.5068 14.1661H18.5929ZM12 1.46202C14.3797 1.46202 16.9409 3.18487 16.9409 6.96712C16.9409 10.1473 13.3761 14.88 12 16.588C10.624 14.8799 7.05911 10.1473 7.05911 6.96712C7.05911 3.16443 9.54048 1.46202 12 1.46202ZM5.40695 14.1661C8.82625 14.1661 8.4377 14.1666 8.49245 14.165C8.88995 14.7789 9.28914 15.3519 9.66049 15.8616L3.2807 19.1268L5.40695 14.1661ZM2.41005 21.1582L6.64895 18.9888L10.296 22.6353H1.77686L2.41005 21.1582ZM16.8263 22.6353L21.2404 20.3425L22.2232 22.6353H16.8263Z" fill="#777980"/>
<path d="M14.1179 6.40259C14.1179 5.23512 13.1679 4.28516 12.0004 4.28516C10.8328 4.28516 9.88281 5.23512 9.88281 6.40259C9.88281 7.57006 10.8328 8.51984 12.0004 8.51984C13.1679 8.51984 14.1179 7.57006 14.1179 6.40259ZM11.2946 6.40259C11.2946 6.0133 11.6111 5.6967 12.0004 5.6967C12.3895 5.6967 12.7063 6.0133 12.7063 6.40259C12.7063 6.79166 12.3895 7.1083 12.0004 7.1083C11.6111 7.1083 11.2945 6.7917 11.2945 6.40259H11.2946Z" fill="#777980"/>
</g>
<defs>
<clipPath id="clip0_7707_1247">
<rect width="24" height="24" fill="white"/>
</clipPath>
</defs>
</svg>
