<svg width="25" height="17" viewBox="0 0 25 17" fill="none" xmlns="http://www.w3.org/2000/svg">
<path d="M7.63805 15.9251C11.851 15.9251 15.2663 12.6098 15.2663 8.52014C15.2663 4.43053 11.851 1.11523 7.63805 1.11523C3.42506 1.11523 0.00976562 4.43053 0.00976562 8.52014C0.00976562 12.6098 3.42506 15.9251 7.63805 15.9251Z" fill="#FF6041"/>
<path d="M17.2474 15.9251C21.4604 15.9251 24.8757 12.6098 24.8757 8.52014C24.8757 4.43053 21.4604 1.11523 17.2474 1.11523C13.0344 1.11523 9.61914 4.43053 9.61914 8.52014C9.61914 12.6098 13.0344 15.9251 17.2474 15.9251Z" fill="#FFD941"/>
<path fill-rule="evenodd" clip-rule="evenodd" d="M12.4424 2.82369C13.323 3.51448 14.0332 4.38772 14.5212 5.37946C15.0091 6.3712 15.2624 7.45633 15.2624 8.55537C15.2624 9.65441 15.0091 10.7395 14.5212 11.7313C14.0332 12.723 13.323 13.5963 12.4424 14.2871C11.5552 13.5966 10.8391 12.7214 10.3471 11.7263C9.85506 10.7311 9.59961 9.6414 9.59961 8.53757C9.59961 7.43374 9.85506 6.344 10.3471 5.34886C10.8391 4.35371 11.5552 3.51418 12.4424 2.82369Z" fill="#FFD941"/>
<mask id="mask0_7252_1544" style="mask-type:luminance" maskUnits="userSpaceOnUse" x="9" y="2" width="7" height="13">
<path d="M12.4424 2.82369C13.323 3.51448 14.0332 4.38772 14.5212 5.37946C15.0091 6.3712 15.2624 7.45633 15.2624 8.55537C15.2624 9.65441 15.0091 10.7395 14.5212 11.7313C14.0332 12.723 13.323 13.5963 12.4424 14.2871C11.5552 13.5966 10.8391 12.7214 10.3471 11.7263C9.85506 10.7311 9.59961 9.6414 9.59961 8.53757C9.59961 7.43374 9.85506 6.344 10.3471 5.34886C10.8391 4.35371 11.5552 3.51418 12.4424 2.82369Z" fill="white"/>
</mask>
<g mask="url(#mask0_7252_1544)">
<path fill-rule="evenodd" clip-rule="evenodd" d="M8.22461 4.24805H17.3199V5.20926H8.22461V4.24805ZM8.22461 6.13487H17.3199V7.09609H8.22461V6.13487ZM8.22461 8.0573H17.3199V9.01852H8.22461V8.0573ZM8.22461 9.94413H17.3199V10.9053H8.22461V9.94413ZM8.22461 11.831H17.3199V12.7922H8.22461V11.831Z" fill="#FF6041"/>
</g>
</svg>
