<svg width="44" height="44" viewBox="0 0 44 44" fill="none" xmlns="http://www.w3.org/2000/svg">
<path fill-rule="evenodd" clip-rule="evenodd" d="M30.25 15.1667C30.25 14.6604 29.8396 14.25 29.3333 14.25H14.6667C14.1604 14.25 13.75 14.6604 13.75 15.1667C13.75 15.6729 14.1604 16.0833 14.6667 16.0833H29.3333C29.8396 16.0833 30.25 15.6729 30.25 15.1667Z" fill="#1D1F2C"/>
<path fill-rule="evenodd" clip-rule="evenodd" d="M30.25 22C30.25 21.4938 29.8396 21.0834 29.3333 21.0834H20.1667C19.6604 21.0834 19.25 21.4938 19.25 22C19.25 22.5063 19.6604 22.9167 20.1667 22.9167H29.3333C29.8396 22.9167 30.25 22.5063 30.25 22Z" fill="#1D1F2C"/>
<path fill-rule="evenodd" clip-rule="evenodd" d="M30.25 28.8333C30.25 28.327 29.8396 27.9166 29.3333 27.9166H14.6667C14.1604 27.9166 13.75 28.327 13.75 28.8333C13.75 29.3396 14.1604 29.75 14.6667 29.75H29.3333C29.8396 29.75 30.25 29.3396 30.25 28.8333Z" fill="#1D1F2C"/>
</svg>
