<svg width="22" height="22" viewBox="0 0 22 22" fill="none" xmlns="http://www.w3.org/2000/svg">
<path d="M3.59323 11.995C3.93706 11.6511 4.13021 11.1848 4.13021 10.6986V8.70801C4.13021 4.91105 7.20825 1.83301 11.0052 1.83301C14.8021 1.83301 17.8802 4.91105 17.8802 8.70801V10.6986C17.8802 11.1848 18.0733 11.6511 18.4172 11.995L19.7135 13.2913V14.5582C19.7135 14.9053 19.519 15.2248 19.2024 15.3672C17.7723 16.0109 15.0399 16.958 11.0052 16.958C6.97052 16.958 4.23812 16.0109 2.80803 15.3672C2.49141 15.2248 2.29688 14.9053 2.29688 14.5582V13.2913L3.59323 11.995Z" stroke="#1D1F2C" stroke-width="1.5" stroke-linecap="round" stroke-linejoin="round"/>
<path d="M8.25 19.25C8.97979 19.8194 9.94354 20.1657 11 20.1657C12.0565 20.1657 13.0202 19.8194 13.75 19.25" stroke="#1D1F2C" stroke-width="1.5" stroke-linecap="round" stroke-linejoin="round"/>
</svg>
