<svg width="18" height="20" viewBox="0 0 18 20" fill="none" xmlns="http://www.w3.org/2000/svg">
<g id="elements">
<path id="Vector" d="M4.48131 12.9013C3.30234 13.6034 0.211137 15.0368 2.09388 16.8305C3.01359 17.7067 4.03791 18.3334 5.32572 18.3334H12.6743C13.9621 18.3334 14.9864 17.7067 15.9061 16.8305C17.7889 15.0368 14.6977 13.6034 13.5187 12.9013C10.754 11.2551 7.24599 11.2551 4.48131 12.9013Z" stroke="#B4B4B4" stroke-width="1.5" stroke-linecap="round" stroke-linejoin="round"/>
<path id="Ellipse 1381" d="M12.75 5.41669C12.75 7.48776 11.0711 9.16669 9 9.16669C6.92893 9.16669 5.25 7.48776 5.25 5.41669C5.25 3.34562 6.92893 1.66669 9 1.66669C11.0711 1.66669 12.75 3.34562 12.75 5.41669Z" stroke="#B4B4B4" stroke-width="1.5"/>
</g>
</svg>
