<svg width="15" height="15" viewBox="0 0 15 15" fill="none" xmlns="http://www.w3.org/2000/svg">
<g id="plus-circle">
<path id="plus-circle_2" d="M7.5671 1.51672C4.40781 1.51672 1.84375 4.08078 1.84375 7.24007C1.84375 10.3994 4.40781 12.9634 7.5671 12.9634C10.7264 12.9634 13.2904 10.3994 13.2904 7.24007C13.2904 4.08078 10.7264 1.51672 7.5671 1.51672ZM9.57027 7.66932H7.99635V9.24324C7.99635 9.4779 7.80175 9.67249 7.5671 9.67249C7.33244 9.67249 7.13785 9.4779 7.13785 9.24324V7.66932H5.56393C5.32927 7.66932 5.13467 7.47473 5.13467 7.24007C5.13467 7.00541 5.32927 6.81082 5.56393 6.81082H7.13785V5.2369C7.13785 5.00224 7.33244 4.80765 7.5671 4.80765C7.80175 4.80765 7.99635 5.00224 7.99635 5.2369V6.81082H9.57027C9.80492 6.81082 9.99952 7.00541 9.99952 7.24007C9.99952 7.47473 9.80492 7.66932 9.57027 7.66932Z" fill="#1141CB"/>
</g>
</svg>
