<svg width="20" height="20" viewBox="0 0 20 20" fill="none" xmlns="http://www.w3.org/2000/svg">
<path d="M16.001 12.25C14.643 12.25 13.462 12.983 12.804 14.068L7.4729 11.403C7.6489 10.969 7.75098 10.497 7.75098 10C7.75098 9.503 7.6489 9.03098 7.4729 8.59698L12.804 5.93201C13.462 7.01601 14.643 7.75 16.001 7.75C18.068 7.75 19.751 6.068 19.751 4C19.751 1.932 18.068 0.25 16.001 0.25C13.934 0.25 12.251 1.932 12.251 4C12.251 4.173 12.279 4.33901 12.302 4.50601L6.63696 7.33801C5.95896 6.66601 5.028 6.25 4 6.25C1.933 6.25 0.25 7.932 0.25 10C0.25 12.068 1.933 13.75 4 13.75C5.027 13.75 5.95896 13.333 6.63696 12.662L12.302 15.494C12.279 15.661 12.251 15.827 12.251 16C12.251 18.068 13.934 19.75 16.001 19.75C18.068 19.75 19.751 18.068 19.751 16C19.751 13.932 18.068 12.25 16.001 12.25ZM16.001 1.75C17.241 1.75 18.251 2.759 18.251 4C18.251 5.241 17.241 6.25 16.001 6.25C14.761 6.25 13.751 5.241 13.751 4C13.751 2.759 14.761 1.75 16.001 1.75ZM4.00098 12.25C2.76098 12.25 1.75098 11.241 1.75098 10C1.75098 8.759 2.76098 7.75 4.00098 7.75C5.24098 7.75 6.25098 8.759 6.25098 10C6.25098 11.241 5.24098 12.25 4.00098 12.25ZM16.001 18.25C14.761 18.25 13.751 17.241 13.751 16C13.751 14.759 14.761 13.75 16.001 13.75C17.241 13.75 18.251 14.759 18.251 16C18.251 17.241 17.241 18.25 16.001 18.25Z" fill="#777980"/>
</svg>
