<svg width="14" height="14" viewBox="0 0 14 14" fill="none" xmlns="http://www.w3.org/2000/svg">
<g id="Live area" clip-path="url(#clip0_7601_911)">
<path id="Vector" d="M7.5978 1.03862C7.48549 0.811058 7.25373 0.666992 6.99997 0.666992C6.74621 0.666992 6.51445 0.811058 6.40215 1.03862L4.71605 4.45502L0.945821 5.00287C0.694696 5.03936 0.486065 5.21525 0.407648 5.4566C0.329232 5.69794 0.39463 5.96287 0.576345 6.14L3.30451 8.7993L2.66048 12.5543C2.61758 12.8044 2.72039 13.0572 2.92569 13.2063C3.13099 13.3555 3.40316 13.3752 3.62778 13.2571L6.99997 11.4842L10.3722 13.2571C10.5968 13.3752 10.869 13.3555 11.0743 13.2063C11.2796 13.0572 11.3824 12.8044 11.3395 12.5543L10.6954 8.7993L13.4236 6.14C13.6053 5.96287 13.6707 5.69794 13.5923 5.4566C13.5139 5.21525 13.3052 5.03936 13.0541 5.00287L9.28389 4.45502L7.5978 1.03862Z" fill="#F9C80E"/>
</g>
<defs>
<clipPath id="clip0_7601_911">
<rect width="13.3333" height="13.3333" fill="white" transform="translate(0.333984 0.333496)"/>
</clipPath>
</defs>
</svg>
