<svg width="32" height="32" viewBox="0 0 32 32" fill="none" xmlns="http://www.w3.org/2000/svg">
<g clip-path="url(#clip0_7338_293)">
<path d="M31.7532 9.11441H0.662313V5.00166H6.71519C7.26163 6.02478 8.275 6.77766 9.726 6.77766H22.6895C24.1405 6.77766 25.1526 6.02478 25.699 5.00166H31.7532V9.11441ZM9.726 5.86716H22.6895C23.4853 5.86716 24.1503 5.57147 24.6114 5.01141C25.0269 4.50734 25.2652 3.79291 25.2652 3.05303C25.2652 1.69709 24.459 0.238281 22.6895 0.238281H9.726C7.95519 0.238281 7.14894 1.69716 7.14894 3.05303C7.14894 4.40834 7.95519 5.86716 9.726 5.86716ZM6.2385 3.05303C6.2385 2.64341 6.29713 2.23241 6.41306 1.84103H3.65037C3.02906 1.84103 2.52369 2.34578 2.52369 2.96641V4.09116H6.36613C6.28132 3.75163 6.23846 3.40299 6.2385 3.05303ZM26.0481 4.09116H29.8905V2.96641C29.8905 2.34578 29.3858 1.84103 28.7651 1.84103H26.0012C26.1171 2.23458 26.1759 2.64276 26.1757 3.05303C26.1758 3.40299 26.1329 3.75164 26.0481 4.09116ZM20.8894 10.0248H1.44512L0.03125 13.896H22.3026L20.8894 10.0248ZM18.5136 23.9223L18.4282 25.1473C18.4289 25.1473 18.4296 25.1473 18.4302 25.1467L18.2921 27.1324L18.2043 28.4017V29.1312C18.2043 29.2321 18.1919 29.3298 18.1684 29.4236C18.1427 29.5265 18.1033 29.6256 18.0512 29.718C18.0408 29.7362 18.0291 29.7531 18.018 29.7707L18.0082 29.7863C17.9939 29.808 17.9789 29.8293 17.9633 29.8502C17.9568 29.8593 17.9496 29.8684 17.9425 29.8775C17.9307 29.8925 17.9184 29.9075 17.9061 29.9218C17.8918 29.938 17.8768 29.9543 17.8618 29.97C17.8599 29.9719 17.8572 29.9745 17.8553 29.9772C17.8267 30.0071 17.7961 30.0345 17.7648 30.0592C17.7498 30.0716 17.7342 30.084 17.7186 30.0957C17.7094 30.1029 17.6997 30.1094 17.6899 30.1165C17.686 30.1192 17.6821 30.1224 17.6781 30.1243C17.6698 30.1302 17.6614 30.1359 17.6528 30.1413C17.643 30.1478 17.6333 30.1543 17.6234 30.1602C17.613 30.166 17.6032 30.1725 17.5928 30.1777C17.5861 30.182 17.5791 30.1859 17.572 30.1895C17.5584 30.1973 17.5445 30.2045 17.5303 30.211C17.4782 30.237 17.4235 30.2592 17.3675 30.2767C17.3555 30.2808 17.3433 30.2845 17.3311 30.2878C17.3174 30.2917 17.3044 30.2956 17.2907 30.2988C17.2888 30.2995 17.2868 30.3002 17.2848 30.3002C17.2692 30.3041 17.2536 30.308 17.2379 30.3106C17.2275 30.3125 17.2164 30.3152 17.2054 30.3171C17.1591 30.3262 17.1122 30.3314 17.0641 30.334C17.0432 30.3347 17.023 30.3353 17.0022 30.3353H15.684C15.6632 30.3353 15.6423 30.3347 15.6221 30.334C15.5942 30.3326 15.5663 30.3296 15.5387 30.3249H15.5362C15.5219 30.323 15.5069 30.321 15.4926 30.3184C15.479 30.3164 15.4656 30.314 15.4522 30.3113C15.4439 30.3101 15.4356 30.3085 15.4274 30.3067C15.4144 30.3035 15.4007 30.3008 15.3877 30.297C15.3764 30.2942 15.3651 30.2912 15.3539 30.2878C15.3415 30.2846 15.3298 30.2807 15.3181 30.2768C15.2994 30.271 15.2809 30.2644 15.2627 30.2572C15.2595 30.2566 15.2569 30.2553 15.2536 30.254C15.2321 30.2462 15.2113 30.237 15.1904 30.2279C15.1754 30.2214 15.1605 30.2142 15.1455 30.2071C15.1312 30.1993 15.1162 30.1915 15.1019 30.1837C15.0804 30.1719 15.0596 30.1589 15.0387 30.1459C15.0315 30.1413 15.0244 30.1375 15.0179 30.1329C15.0133 30.1297 15.0088 30.127 15.0049 30.1238C15.0026 30.122 15.0002 30.1205 14.9977 30.1192C14.9912 30.114 14.984 30.1095 14.9775 30.1049C14.9756 30.103 14.9729 30.1017 14.971 30.0997C14.9464 30.0826 14.9229 30.0639 14.9007 30.0437C14.8882 30.0332 14.8761 30.0224 14.8643 30.0112C14.8636 30.0105 14.8623 30.0098 14.8616 30.0085C14.8526 30 14.8437 29.9913 14.8349 29.9825C14.8251 29.9733 14.8161 29.9636 14.8069 29.9538C14.8056 29.9532 14.805 29.9519 14.8043 29.9506C14.7959 29.9416 14.7876 29.9325 14.7796 29.9232C14.7737 29.9173 14.7685 29.9108 14.7626 29.9043C14.7571 29.8981 14.7519 29.8916 14.747 29.8848C14.7375 29.8734 14.7284 29.8617 14.7196 29.8497C14.7107 29.8376 14.702 29.8255 14.6936 29.8132C14.6897 29.808 14.6864 29.8021 14.6831 29.7969C14.6727 29.7819 14.6616 29.7683 14.6525 29.7526C14.5389 29.5653 14.4789 29.3504 14.4792 29.1313V28.8421H7.85687V29.1313C7.8572 29.3504 7.79726 29.5653 7.68363 29.7526C7.67644 29.7643 7.668 29.776 7.6595 29.7871C7.65625 29.7923 7.653 29.7982 7.64906 29.8033C7.63863 29.819 7.62756 29.8346 7.61587 29.8502C7.59271 29.8811 7.56817 29.9108 7.54231 29.9395C7.54169 29.9401 7.541 29.9408 7.541 29.9414C7.528 29.9551 7.51563 29.9681 7.50256 29.9811C7.48888 29.9948 7.47519 30.0078 7.46088 30.0208C7.44656 30.0338 7.43225 30.0469 7.41725 30.0586C7.40225 30.071 7.38731 30.0833 7.37169 30.0944C7.35606 30.1062 7.34044 30.1172 7.32481 30.1283C7.29533 30.1478 7.26514 30.1663 7.23431 30.1837C7.22256 30.1902 7.21087 30.1967 7.19912 30.2025C7.19456 30.2045 7.19 30.2071 7.18612 30.209C7.17285 30.2157 7.15939 30.222 7.14575 30.2279C7.13075 30.2351 7.11581 30.2416 7.10019 30.2475C7.08456 30.254 7.06956 30.2598 7.05331 30.265C7.03769 30.2709 7.02206 30.2761 7.00644 30.2807C6.99081 30.2852 6.97581 30.2898 6.96019 30.2937C6.95369 30.2963 6.9465 30.2976 6.93937 30.2995C6.93481 30.3008 6.93094 30.3015 6.92637 30.3028C6.91603 30.3053 6.90561 30.3074 6.89512 30.3093C6.88731 30.3112 6.88013 30.3125 6.87231 30.3138C6.8645 30.3152 6.85669 30.3165 6.8495 30.3178L6.82606 30.3217C6.8215 30.3223 6.81694 30.323 6.81238 30.323C6.80519 30.3243 6.79869 30.3257 6.79219 30.3263C6.79025 30.3263 6.78831 30.3269 6.787 30.3269C6.76356 30.3302 6.7395 30.3328 6.71475 30.3341C6.69394 30.3347 6.67369 30.3354 6.65287 30.3354H5.3345C5.31362 30.3354 5.29281 30.3347 5.27262 30.3341C5.23594 30.3323 5.19941 30.3282 5.16325 30.3217C5.15778 30.3212 5.15235 30.3203 5.147 30.3191C5.1369 30.3175 5.12684 30.3157 5.11681 30.3137C5.11219 30.3128 5.10744 30.3122 5.10275 30.3112C5.08265 30.3075 5.06266 30.3031 5.04281 30.2982C5.02208 30.293 5.00145 30.2873 4.98094 30.2813C4.97706 30.28 4.97375 30.2787 4.9705 30.278C4.94212 30.2689 4.9141 30.2587 4.8865 30.2474C4.86026 30.2368 4.83441 30.2253 4.809 30.2129C4.796 30.2064 4.78294 30.1999 4.77056 30.1933C4.72931 30.1713 4.68931 30.1469 4.65075 30.1204C4.6345 30.1093 4.61819 30.0976 4.60256 30.0852C4.60194 30.0846 4.60125 30.0839 4.60063 30.0839C4.59687 30.0807 4.59295 30.0776 4.58887 30.0748C4.58369 30.0708 4.57912 30.0663 4.57387 30.0624C4.57256 30.0611 4.57125 30.0605 4.57 30.0592C4.56294 30.0535 4.556 30.0476 4.54919 30.0416C4.54138 30.0344 4.53294 30.0273 4.52506 30.0201C4.51719 30.0129 4.51006 30.0058 4.50225 29.9986C4.49831 29.9947 4.49381 29.9908 4.48987 29.9868L4.48338 29.9803C4.48144 29.979 4.48013 29.9771 4.47881 29.9758C4.47425 29.9712 4.46906 29.9667 4.46513 29.9615C4.45865 29.9549 4.45236 29.9482 4.44625 29.9413C4.44223 29.9372 4.43853 29.9329 4.43519 29.9283C4.4223 29.9142 4.40992 29.8996 4.39806 29.8847C4.38306 29.8658 4.36812 29.8469 4.35506 29.8273C4.34602 29.8158 4.33756 29.8039 4.32969 29.7915C4.3284 29.7893 4.32707 29.787 4.32569 29.7848C4.31006 29.7628 4.29581 29.7407 4.28281 29.7173C4.182 29.5384 4.12929 29.3365 4.12981 29.1312V28.3985L4.04256 27.1324L3.90519 25.146L3.81337 23.8142C3.81531 23.8155 3.81663 23.8162 3.81856 23.8162V23.8122C3.81919 23.8005 3.8205 23.7894 3.82181 23.7777C3.82181 23.7764 3.82181 23.7745 3.82244 23.7732C3.82375 23.7608 3.82638 23.7484 3.82894 23.736C3.8315 23.7237 3.83481 23.7113 3.83869 23.6989C3.84879 23.6668 3.86255 23.636 3.87969 23.6071C3.88294 23.6006 3.88687 23.5947 3.89075 23.5888C3.90506 23.566 3.922 23.5446 3.94025 23.5243C3.94869 23.5159 3.95719 23.5074 3.96563 23.4996L4.04637 23.3778L4.29513 23.0027C4.18054 22.9947 4.07325 22.9435 3.99493 22.8595C3.9166 22.7755 3.87307 22.6649 3.87313 22.55C3.87313 22.5422 3.87313 22.5344 3.87444 22.5272C3.87506 22.5122 3.87637 22.4973 3.879 22.483C3.88225 22.453 3.88944 22.425 3.89981 22.3977C3.90437 22.384 3.90956 22.371 3.91606 22.3579C3.91931 22.3514 3.92194 22.3455 3.92519 22.339C3.92844 22.3332 3.93238 22.3267 3.93563 22.3208C3.93563 22.3202 3.93562 22.3202 3.93625 22.3195C3.9395 22.3136 3.94275 22.3071 3.94669 22.3019C3.95056 22.296 3.9545 22.2902 3.95906 22.2843C3.96625 22.2746 3.97406 22.2648 3.98187 22.255C3.99031 22.2446 3.99946 22.2348 4.00925 22.2257C4.01399 22.2205 4.01922 22.2157 4.02488 22.2114C4.0255 22.2108 4.02619 22.2101 4.0275 22.2095C4.03338 22.2036 4.03925 22.1984 4.04637 22.1932C4.05225 22.188 4.05875 22.1835 4.06462 22.1795C4.06981 22.1756 4.07569 22.1717 4.08087 22.1685C4.09262 22.1607 4.105 22.1535 4.11731 22.147C4.11862 22.1463 4.12056 22.145 4.12187 22.145L4.12581 22.143C4.13231 22.1391 4.13881 22.1358 4.146 22.1333C4.14662 22.1333 4.14663 22.1327 4.14731 22.1327C4.15056 22.1313 4.15319 22.13 4.15644 22.1287C4.16425 22.1255 4.17269 22.1222 4.18119 22.1196C4.20016 22.113 4.2195 22.1076 4.23912 22.1033C4.26857 22.0979 4.29843 22.0951 4.32837 22.0949H4.89625L5.47262 21.2242L6.25612 20.0408C6.55437 19.5901 7.03569 19.3309 7.57756 19.3309H14.7584C15.3003 19.3309 15.7816 19.5901 16.0799 20.0415L17.4398 22.0949H18.0064C18.123 22.0948 18.2351 22.1396 18.3195 22.22C18.4039 22.3004 18.4541 22.4103 18.4596 22.5267C18.4609 22.5345 18.4609 22.5423 18.4609 22.5502C18.4611 22.6647 18.4179 22.7751 18.3399 22.8591C18.262 22.9431 18.1551 22.9944 18.0409 23.0028L18.2897 23.3779L18.3704 23.4997C18.3789 23.5075 18.3874 23.516 18.3958 23.5245C18.4373 23.5688 18.4695 23.6209 18.4905 23.6779C18.5115 23.7348 18.521 23.7953 18.5182 23.856C18.5182 23.8592 18.5183 23.8632 18.5176 23.8664L18.5136 23.9223ZM7.12875 25.2013C7.10661 25.1922 7.08374 25.185 7.06038 25.1798L5.74094 24.877C5.62323 24.8501 5.49966 24.871 5.39734 24.9351C5.29502 24.9992 5.22232 25.1013 5.19519 25.219C5.13919 25.4638 5.29225 25.7081 5.53713 25.7641L5.78006 25.8195V25.8201L6.85725 26.0669C6.89078 26.0747 6.92508 26.0786 6.9595 26.0787C7.06244 26.0785 7.16229 26.0435 7.24273 25.9792C7.32317 25.915 7.37945 25.8254 7.40238 25.725C7.42656 25.6195 7.41229 25.5087 7.36213 25.4127C7.31198 25.3167 7.22922 25.2418 7.12875 25.2013ZM14.4073 25.2013C14.3991 25.1301 14.3741 25.0618 14.3344 25.002C14.2927 24.9397 14.2364 24.8886 14.1703 24.8532C14.1042 24.8179 14.0303 24.7994 13.9554 24.7995H8.3805C8.30551 24.7994 8.23167 24.8178 8.16553 24.8531C8.0994 24.8885 8.04303 24.9396 8.00144 25.002C7.96153 25.0617 7.93652 25.13 7.9285 25.2013C7.91922 25.2788 7.9302 25.3573 7.96037 25.4293L8.62337 27.0183L8.67481 27.1415C8.7095 27.2243 8.76788 27.2949 8.84261 27.3447C8.91735 27.3944 9.00512 27.4209 9.09488 27.4208H13.2409C13.3308 27.4209 13.4188 27.3943 13.4935 27.3443C13.5683 27.2943 13.6266 27.2233 13.6609 27.1402L13.7118 27.0183L14.3754 25.4299C14.4056 25.3578 14.4166 25.279 14.4073 25.2013ZM17.1407 25.2189C17.0847 24.974 16.8404 24.821 16.5956 24.877L15.2754 25.1798C15.252 25.185 15.2292 25.1922 15.2071 25.2013C15.1066 25.2417 15.0239 25.3167 14.9737 25.4126C14.9236 25.5086 14.9093 25.6194 14.9336 25.7249C14.9565 25.8253 15.0128 25.9149 15.0932 25.9791C15.1737 26.0433 15.2735 26.0784 15.3764 26.0785C15.4103 26.0785 15.4448 26.0746 15.4787 26.0668L16.5553 25.82L16.7988 25.764C17.0436 25.708 17.1967 25.4638 17.1407 25.2189ZM17.198 23.3778L16.8209 22.8086C16.8177 22.804 16.8144 22.7995 16.8118 22.7949L16.5956 22.468L15.3211 20.5435C15.1902 20.3455 14.9954 20.2413 14.7584 20.2413H7.5775C7.33656 20.2413 7.14769 20.3429 7.01544 20.5428L6.23063 21.7275L5.74025 22.468L5.52275 22.7962C5.52081 22.8002 5.51819 22.804 5.51556 22.808L5.13781 23.3778H6.22806C6.24175 23.3609 6.25412 23.3433 6.2665 23.3251L6.232 23.3778H17.198V23.3778ZM18.7383 30.334C18.5446 30.6155 18.2853 30.8456 17.9828 31.0045C17.6803 31.1633 17.3437 31.2461 17.002 31.2457H15.6838C15.3417 31.2461 15.0046 31.1633 14.7015 31.0045C14.3985 30.8456 14.1386 30.6155 13.9443 30.334H8.42606L8.20075 30.5703L8.14863 30.6244C8.12256 30.6505 8.09781 30.6739 8.07181 30.6973C8.05556 30.7123 8.02756 30.7377 7.99169 30.7664C7.97212 30.7827 7.94419 30.8055 7.91031 30.8302C7.89081 30.8445 7.87125 30.8589 7.85169 30.8725L7.83738 30.8823L7.82237 30.892C7.78462 30.9168 7.73381 30.9487 7.67581 30.9813C7.655 30.9923 7.63281 31.0047 7.61006 31.0165L7.58075 31.0315L7.57688 31.0328C7.55953 31.0415 7.54194 31.0498 7.52413 31.0575C7.4955 31.0706 7.46619 31.0836 7.43687 31.0947C7.41537 31.1038 7.38675 31.1148 7.35288 31.1266C7.293 31.1474 7.23112 31.1663 7.16337 31.1833C7.13275 31.1911 7.10413 31.1976 7.07613 31.2028C7.039 31.2106 7.00056 31.2178 6.95694 31.2243C6.92596 31.2285 6.89492 31.2322 6.86381 31.2353C6.84819 31.2367 6.82537 31.2386 6.79806 31.2405L6.74988 31.2432L6.73812 31.2438C6.70971 31.2451 6.68126 31.2457 6.65281 31.2457H5.3345C4.99237 31.2461 4.65527 31.1633 4.35224 31.0045C4.0492 30.8456 3.78931 30.6155 3.59494 30.334H0.44675V31.7609H31.9688V30.334H18.7383ZM19.114 28.4395V29.1311C19.114 29.2288 19.1075 29.3272 19.0938 29.4235H20.2446V14.8065H2.09188V29.4235H3.24006C3.2268 29.3266 3.22006 29.2289 3.21988 29.1311V28.431L2.9105 23.945C2.90788 23.917 2.90725 23.8936 2.90663 23.8767C2.89938 23.6181 2.96531 23.3628 3.09681 23.1401C3.0074 22.9563 2.96108 22.7545 2.96137 22.55C2.96137 21.7965 3.57487 21.183 4.32837 21.183H4.4065L5.49606 19.5373C5.96625 18.8268 6.725 18.419 7.5775 18.419H14.7584C15.6116 18.419 16.3702 18.8274 16.8405 19.5386L18.8008 22.4993L19.0841 22.9272C19.3159 23.1857 19.4404 23.5302 19.4299 23.8793C19.4293 23.9014 19.428 23.9235 19.426 23.945L19.114 28.4395ZM23.3264 14.6117C23.3684 14.5518 23.3953 14.4826 23.4048 14.41C23.4143 14.3374 23.4062 14.2637 23.3811 14.1949L21.8578 10.0248H30.3243V29.4235H21.1544V14.8065H22.9533C23.0265 14.8064 23.0987 14.7887 23.1637 14.7548C23.2287 14.7209 23.2845 14.6718 23.3264 14.6117ZM22.8979 17.9983C22.6465 17.9983 22.4433 18.2015 22.4433 18.4529C22.4433 18.7043 22.6465 18.9082 22.8979 18.9082C23.0379 18.9082 23.1558 19.0253 23.1558 19.1641V20.2843C23.1558 20.423 23.0379 20.5402 22.8979 20.5402C22.6465 20.5402 22.4433 20.7441 22.4433 20.9955C22.4433 21.2468 22.6465 21.45 22.8979 21.45C23.542 21.45 24.0656 20.9271 24.0656 20.2843V19.1641C24.0656 18.5213 23.542 17.9983 22.8979 17.9983Z" fill="#1141CB"/>
</g>
<defs>
<clipPath id="clip0_7338_293">
<rect width="32" height="32" fill="white"/>
</clipPath>
</defs>
</svg>
