<svg width="18" height="18" viewBox="0 0 18 18" fill="none" xmlns="http://www.w3.org/2000/svg">
<g id="car-03">
<path id="Vector" d="M6.75781 12.75C6.75781 13.5784 6.08624 14.25 5.25781 14.25C4.42938 14.25 3.75781 13.5784 3.75781 12.75C3.75781 11.9216 4.42938 11.25 5.25781 11.25C6.08624 11.25 6.75781 11.9216 6.75781 12.75Z" stroke="#1141CB" stroke-width="1.125"/>
<path id="Vector_2" d="M14.2578 12.75C14.2578 13.5784 13.5863 14.25 12.7578 14.25C11.9294 14.25 11.2578 13.5784 11.2578 12.75C11.2578 11.9216 11.9294 11.25 12.7578 11.25C13.5863 11.25 14.2578 11.9216 14.2578 12.75Z" stroke="#1141CB" stroke-width="1.125"/>
<path id="Vector_3" d="M1.50586 7.5H13.5058M1.50586 7.5C1.50586 8.085 1.49086 9.78 1.50886 11.445C1.53583 11.985 1.62577 12.435 3.75714 12.75M1.50586 7.5C1.66774 6.195 2.3722 4.65 2.73192 4.065M6.75586 7.5V3.75M11.2484 12.75H6.75186M1.51785 3.75H9.17999C9.17999 3.75 9.58469 3.75 9.94439 3.786C10.6189 3.849 11.1855 4.155 11.752 4.92C12.352 5.73 12.8132 6.756 13.4248 7.305C14.441 8.2173 16.3745 7.935 16.4824 9.87C16.5094 10.86 16.5094 11.94 16.4644 12.12C16.3922 12.65 15.9835 12.7366 15.4752 12.75C15.034 12.7617 14.5022 12.7291 14.2432 12.75" stroke="#1141CB" stroke-width="1.125" stroke-linecap="round"/>
</g>
</svg>
