<svg width="40" height="41" viewBox="0 0 40 41" fill="none" xmlns="http://www.w3.org/2000/svg">
<path d="M20.3781 17.5997C21.0719 17.5997 21.7444 17.8035 22.3213 18.1879L22.7463 18.471C24.3383 19.5347 26.2103 20.1016 28.125 20.0997C28.5444 20.0997 28.9594 20.0679 29.3706 20.0147C29.3678 19.7612 29.3549 19.5079 29.3319 19.2554L23.5175 16.9297C23.4388 16.8983 23.3674 16.8513 23.3074 16.7915C23.2475 16.7316 23.2003 16.6602 23.1687 16.5816L20.8431 10.7672C20.5656 10.7422 20.285 10.7247 20 10.7247C19.715 10.7247 19.4344 10.7422 19.1562 10.7672L16.8306 16.5816C16.7991 16.6602 16.7519 16.7316 16.692 16.7915C16.632 16.8513 16.5605 16.8983 16.4819 16.9297L10.6675 19.2554C10.6425 19.5341 10.625 19.8147 10.625 20.0997C10.625 20.3847 10.6425 20.6654 10.6675 20.9435L16.4819 23.2691C16.6413 23.3329 16.7669 23.4585 16.8306 23.6172L19.1562 29.4316C19.2112 29.4366 19.2675 29.436 19.3225 29.4397C19.3538 29.1416 19.375 28.8404 19.375 28.5372C19.375 26.821 18.8719 25.1591 17.92 23.7316L17.4637 23.0466C17.0787 22.4691 16.8756 21.7966 16.8756 21.1035C16.8763 20.1746 17.2455 19.284 17.9021 18.6271C18.5588 17.9702 19.4493 17.6007 20.3781 17.5997Z" fill="#1141CB"/>
<path d="M10.9199 22.391C11.3361 24.0286 12.1864 25.5236 13.3812 26.7184C14.576 27.9132 16.071 28.7636 17.7087 29.1797L15.7687 24.331L10.9199 22.391Z" fill="#1141CB"/>
<path d="M17.92 33.343C18.4617 32.5282 18.8613 31.6276 19.1019 30.6792C13.6625 30.2211 9.375 25.6555 9.375 20.0999C9.375 14.2411 14.1413 9.47485 20 9.47485C25.7475 9.47485 30.4325 14.0655 30.6081 19.7711C31.6382 19.5003 32.6164 19.061 33.5031 18.4711L33.9281 18.188C34.5433 17.7778 35.2727 17.5731 36.0115 17.6034C36.7503 17.6338 37.4605 17.8975 38.04 18.3567C37.1588 9.17735 29.4056 1.97485 20 1.97485C10.0063 1.97485 1.875 10.1055 1.875 20.0999C1.875 29.2699 8.72188 36.8655 17.57 38.0574C17.138 37.4792 16.8958 36.7814 16.8767 36.06C16.8576 35.3385 17.0624 34.6288 17.4631 34.0286L17.92 33.343ZM4.375 22.5999H3.125V21.3499H4.375V22.5999ZM4.375 20.0999H3.125C3.125 10.7949 10.695 3.22485 20 3.22485V4.47485C11.3844 4.47485 4.375 11.4842 4.375 20.0999Z" fill="#1141CB"/>
<path d="M29.0799 17.8085C28.6637 16.1708 27.8134 14.6758 26.6186 13.481C25.4238 12.2862 23.9288 11.4359 22.2912 11.0197L24.2305 15.8685L29.0799 17.8085ZM37.2899 34.0366C36.2005 32.4028 35.6249 30.5016 35.6249 28.5372C35.6249 26.5728 36.2005 24.6716 37.2899 23.0378L37.7462 22.3528C38.0337 21.9193 38.1624 21.3997 38.1106 20.8821C38.0587 20.3645 37.8295 19.8808 37.4617 19.5129C37.0939 19.145 36.6102 18.9157 36.0926 18.8637C35.575 18.8118 35.0554 18.9404 34.6218 19.2278L34.1968 19.511C32.3924 20.7141 30.293 21.3497 28.1249 21.3497C25.9568 21.3497 23.8574 20.7141 22.053 19.5116L21.628 19.2285C21.1945 18.941 20.6749 18.8122 20.1573 18.8641C19.6397 18.9159 19.156 19.1452 18.7881 19.513C18.4202 19.8808 18.1909 20.3645 18.1389 20.882C18.087 21.3996 18.2156 21.9193 18.503 22.3528L18.9593 23.0378C20.0493 24.6716 20.6249 26.5728 20.6249 28.5372C20.6249 30.5016 20.0493 32.4028 18.9599 34.0366L18.5037 34.7216C18.2567 35.0916 18.125 35.5267 18.1255 35.9716C18.1255 37.2028 19.118 38.2028 20.3449 38.2216H20.3668V38.2241L20.3787 38.2253C20.8249 38.2253 21.2568 38.0947 21.6287 37.8472L22.0537 37.5641C22.6381 37.1777 23.2582 36.8483 23.9055 36.5803L21.5287 34.996C21.443 34.9386 21.3728 34.861 21.3242 34.7701C21.2756 34.6792 21.2501 34.5778 21.2499 34.4747V31.9747C21.2499 30.941 22.0912 30.0997 23.1249 30.0997C23.3449 30.0997 23.5537 30.1447 23.7499 30.2147V25.7247C23.7499 24.691 24.5912 23.8497 25.6249 23.8497C25.8718 23.8497 26.1062 23.9003 26.3224 23.9872C26.5387 23.1903 27.2605 22.5997 28.1249 22.5997C28.9893 22.5997 29.7118 23.1903 29.9274 23.9872C30.1437 23.9003 30.378 23.8497 30.6249 23.8497C31.6587 23.8497 32.4999 24.691 32.4999 25.7247V26.4647C32.7001 26.3907 32.9115 26.3518 33.1249 26.3497C34.1587 26.3497 34.9999 27.191 34.9999 28.2247V35.0997C34.9999 35.2653 34.9343 35.4247 34.8168 35.5416L33.7499 36.6085V37.291C33.8993 37.3803 34.0512 37.466 34.1968 37.5628L34.6218 37.846C35.0553 38.1335 35.5749 38.2622 36.0925 38.2104C36.6101 38.1585 37.0939 37.9293 37.4617 37.5615C37.8296 37.1937 38.059 36.71 38.1109 36.1924C38.1629 35.6748 38.0342 35.1552 37.7468 34.7216L37.2899 34.0366ZM10.9199 17.8085L15.7687 15.8685L17.708 11.0197C16.0706 11.4361 14.5757 12.2864 13.381 13.4812C12.1864 14.676 11.3361 16.1709 10.9199 17.8085Z" fill="#1141CB"/>
<path d="M33.75 28.2247C33.7428 28.0638 33.6738 27.9119 33.5574 27.8005C33.441 27.6892 33.2861 27.6271 33.125 27.6271C32.9639 27.6271 32.809 27.6892 32.6926 27.8005C32.5762 27.9119 32.5072 28.0638 32.5 28.2247V30.0997H31.25V25.7247C31.2428 25.5638 31.1738 25.4119 31.0574 25.3005C30.941 25.1892 30.7861 25.1271 30.625 25.1271C30.4639 25.1271 30.309 25.1892 30.1926 25.3005C30.0762 25.4119 30.0072 25.5638 30 25.7247V30.0997H28.75V24.4747C28.7428 24.3138 28.6738 24.1619 28.5574 24.0505C28.441 23.9392 28.2861 23.8771 28.125 23.8771C27.9639 23.8771 27.809 23.9392 27.6926 24.0505C27.5762 24.1619 27.5072 24.3138 27.5 24.4747V30.0997H26.25V25.7247C26.2428 25.5638 26.1738 25.4119 26.0574 25.3005C25.941 25.1892 25.7861 25.1271 25.625 25.1271C25.4639 25.1271 25.309 25.1892 25.1926 25.3005C25.0762 25.4119 25.0072 25.5638 25 25.7247V33.8497H23.75V31.9747C23.7428 31.8138 23.6738 31.6619 23.5574 31.5505C23.441 31.4392 23.2861 31.3771 23.125 31.3771C22.9639 31.3771 22.809 31.4392 22.6926 31.5505C22.5762 31.6619 22.5072 31.8138 22.5 31.9747V34.1404L25.9719 36.4547C26.1456 36.571 26.25 36.766 26.25 36.9747V38.2247H32.5V36.3497C32.5 36.1841 32.5656 36.0247 32.6831 35.9079L33.75 34.841V28.2247Z" fill="#1141CB"/>
</svg>
