<svg width="40" height="41" viewBox="0 0 40 41" fill="none" xmlns="http://www.w3.org/2000/svg">
<g clip-path="url(#clip0_7469_2195)">
<path d="M9.65551 12.0242V11.8587L5.6762 10.5621C5.57052 11.0423 5.51733 11.5325 5.51758 12.0242C5.51937 12.995 5.72609 13.9544 6.12422 14.8398C6.52234 15.7252 7.1029 16.5165 7.82792 17.1621L10.2969 13.769C9.88767 13.2791 9.661 12.6625 9.65551 12.0242ZM19.1521 10.5621L15.1728 11.8587V12.0242C15.1673 12.6625 14.9406 13.2791 14.5314 13.769L17.0003 17.1621C17.7254 16.5165 18.3059 15.7252 18.704 14.8398C19.1022 13.9544 19.3089 12.995 19.3107 12.0242C19.3109 11.5325 19.2577 11.0423 19.1521 10.5621ZM12.4141 14.7828C12.0688 14.7811 11.727 14.7132 11.4072 14.5828L8.96586 17.9759C10.0173 18.5944 11.215 18.9206 12.4348 18.9206C13.6547 18.9206 14.8524 18.5944 15.9038 17.9759L13.4417 14.5828C13.1155 14.7158 12.7664 14.7837 12.4141 14.7828ZM11.7245 9.36211V5.16211C10.5079 5.28634 9.34627 5.73182 8.35859 6.45289C7.37092 7.17395 6.59273 8.14467 6.10379 9.26556L10.0969 10.5621C10.468 9.97052 11.0496 9.54168 11.7245 9.36211ZM14.7314 10.5483L18.7245 9.26556C18.2355 8.14467 17.4573 7.17395 16.4697 6.45289C15.482 5.73182 14.3203 5.28634 13.1038 5.16211V9.36211C13.7764 9.53826 14.3577 9.96192 14.7314 10.5483Z" fill="#1141CB"/>
<path d="M12.4145 13.4034C13.1762 13.4034 13.7938 12.7859 13.7938 12.0241C13.7938 11.2623 13.1762 10.6448 12.4145 10.6448C11.6527 10.6448 11.0352 11.2623 11.0352 12.0241C11.0352 12.7859 11.6527 13.4034 12.4145 13.4034Z" fill="#1141CB"/>
<path d="M30.3449 29.2656C30.3395 29.9039 30.1128 30.5206 29.7036 31.0105L32.1725 34.4036C32.8976 33.758 33.4781 32.9666 33.8762 32.0813C34.2744 31.1959 34.4811 30.2364 34.4829 29.2656C34.4831 28.774 34.4299 28.2837 34.3243 27.8036L30.3449 29.1001V29.2656ZM26.8967 26.6036V22.4036C25.6801 22.5278 24.5185 22.9733 23.5308 23.6943C22.5431 24.4154 21.7649 25.3861 21.276 26.507L25.2691 27.8036C25.6402 27.212 26.2218 26.7831 26.8967 26.6036ZM23.0001 34.4036L25.4691 31.0105C25.0599 30.5206 24.8332 29.9039 24.8277 29.2656V29.1001L20.8346 27.8036C20.7336 28.2842 20.685 28.7745 20.6898 29.2656C20.6916 30.2364 20.8983 31.1959 21.2964 32.0813C21.6945 32.9666 22.2751 33.758 23.0001 34.4036Z" fill="#1141CB"/>
<path d="M27.5863 30.6449C28.3481 30.6449 28.9657 30.0273 28.9657 29.2655C28.9657 28.5038 28.3481 27.8862 27.5863 27.8862C26.8246 27.8862 26.207 28.5038 26.207 29.2655C26.207 30.0273 26.8246 30.6449 27.5863 30.6449Z" fill="#1141CB"/>
<path d="M15.9929 23.1828C16.0619 23.0449 16.1377 22.9138 16.2136 22.7828C16.2157 22.7599 16.2157 22.7368 16.2136 22.7138L16.2757 22.6518C17.4089 20.719 19.0188 19.1092 20.9515 17.9759C20.9688 17.954 20.9898 17.9353 21.0136 17.9207H21.0757C21.691 17.5756 22.332 17.2782 22.9929 17.0311C23.6416 15.6788 24.0166 14.2116 24.0963 12.7138H23.4481C23.2652 12.7138 23.0897 12.6412 22.9604 12.5118C22.8311 12.3825 22.7584 12.2071 22.7584 12.0242C22.7584 11.8413 22.8311 11.6659 22.9604 11.5365C23.0897 11.4072 23.2652 11.3345 23.4481 11.3345H24.1377C24.0461 9.74762 23.6307 8.19624 22.917 6.77591L22.3515 7.10695C22.1924 7.1984 22.0035 7.22289 21.8263 7.17504C21.6491 7.12718 21.4981 7.0109 21.4067 6.85177C21.3152 6.69264 21.2907 6.5037 21.3386 6.32651C21.3865 6.14932 21.5027 5.9984 21.6619 5.90695L22.2343 5.57591C21.3571 4.2504 20.2219 3.11518 18.8963 2.23798L18.5653 2.81039C18.52 2.88919 18.4597 2.95829 18.3877 3.01376C18.3157 3.06922 18.2335 3.10997 18.1458 3.13366C18.058 3.15736 17.9665 3.16354 17.8763 3.15185C17.7862 3.14017 17.6993 3.11085 17.6205 3.06557C17.5417 3.02028 17.4726 2.95992 17.4171 2.88793C17.3617 2.81594 17.3209 2.73374 17.2972 2.646C17.2735 2.55826 17.2673 2.46672 17.279 2.3766C17.2907 2.28647 17.32 2.19953 17.3653 2.12074L17.6964 1.55522C16.2655 0.836995 14.7019 0.421451 13.1032 0.334532V0.989704C13.1032 1.17261 13.0306 1.34803 12.9013 1.47736C12.7719 1.6067 12.5965 1.67936 12.4136 1.67936C12.2307 1.67936 12.0553 1.6067 11.9259 1.47736C11.7966 1.34803 11.7239 1.17261 11.7239 0.989704V0.300049C10.137 0.391643 8.58565 0.807064 7.16532 1.52074L7.49635 2.08626C7.54163 2.16505 7.57095 2.25199 7.58264 2.34211C7.59432 2.43224 7.58814 2.52378 7.56444 2.61152C7.54075 2.69925 7.50001 2.78146 7.44454 2.85345C7.38907 2.92544 7.31997 2.9858 7.24118 3.03108C7.16238 3.07637 7.07544 3.10569 6.98532 3.11737C6.89519 3.12905 6.80365 3.12287 6.71592 3.09918C6.62818 3.07548 6.54597 3.03474 6.47398 2.97927C6.40199 2.92381 6.34163 2.8547 6.29635 2.77591L5.96532 2.2035C4.63641 3.09076 3.50095 4.23796 2.62738 5.57591L3.1998 5.90695C3.35893 5.9984 3.47521 6.14932 3.52306 6.32651C3.57092 6.5037 3.54642 6.69264 3.45497 6.85177C3.36352 7.0109 3.21259 7.12718 3.0354 7.17504C2.85821 7.22289 2.66927 7.1984 2.51014 7.10695L1.94463 6.77591C1.23095 8.19624 0.81553 9.74762 0.723936 11.3345H1.37911C1.56202 11.3345 1.73743 11.4072 1.86677 11.5365C1.9961 11.6659 2.06876 11.8413 2.06876 12.0242C2.06876 12.2071 1.9961 12.3825 1.86677 12.5118C1.73743 12.6412 1.56202 12.7138 1.37911 12.7138H0.689453C0.781047 14.3008 1.19647 15.8521 1.91014 17.2725L2.47566 16.9414C2.63479 16.85 2.82373 16.8255 3.00092 16.8733C3.17811 16.9212 3.32903 17.0375 3.42049 17.1966C3.51194 17.3557 3.53644 17.5447 3.48858 17.7219C3.44073 17.899 3.32445 18.05 3.16532 18.1414L2.5929 18.4725C3.4701 19.798 4.60532 20.9332 5.93083 21.8104L6.26187 21.238C6.35332 21.0788 6.50424 20.9626 6.68143 20.9147C6.85862 20.8669 7.04756 20.8914 7.20669 20.9828C7.36582 21.0743 7.48211 21.2252 7.52996 21.4024C7.57782 21.5796 7.55332 21.7685 7.46187 21.9276L7.13083 22.4932C8.55911 23.2233 10.1228 23.6507 11.7239 23.7483V23.0587C11.7239 22.8758 11.7966 22.7003 11.9259 22.571C12.0553 22.4417 12.2307 22.369 12.4136 22.369C12.5965 22.369 12.7719 22.4417 12.9013 22.571C13.0306 22.7003 13.1032 22.8758 13.1032 23.0587V23.7483C14.0867 23.6839 15.0578 23.4939 15.9929 23.1828ZM12.4136 20.3C7.84325 20.3 4.13773 16.5945 4.13773 12.0242C4.13773 7.45384 7.84325 3.74832 12.4136 3.74832C16.9839 3.74832 20.6895 7.45384 20.6895 12.0242C20.6895 14.2191 19.8175 16.3241 18.2655 17.8761C16.7135 19.4281 14.6085 20.3 12.4136 20.3ZM27.586 32.0242C27.2407 32.0224 26.8989 31.9545 26.5791 31.8242L24.1377 35.2173C25.1891 35.8358 26.3868 36.162 27.6067 36.162C28.8266 36.162 30.0242 35.8358 31.0757 35.2173L28.6136 31.8242C28.2874 31.9572 27.9383 32.0251 27.586 32.0242ZM29.9032 27.7897L33.8964 26.5069C33.4074 25.3861 32.6292 24.4153 31.6415 23.6943C30.6539 22.9732 29.4922 22.5277 28.2757 22.4035V26.6035C28.9483 26.7796 29.5296 27.2033 29.9032 27.7897ZM28.9653 5.81729H30.3446C31.625 5.81729 32.8529 6.32591 33.7582 7.23126C34.6636 8.13661 35.1722 9.36452 35.1722 10.6449V11.7414L34.2826 10.8449C34.1527 10.715 33.9766 10.6421 33.7929 10.6421C33.6092 10.6421 33.4331 10.715 33.3032 10.8449C33.1734 10.9747 33.1004 11.1509 33.1004 11.3345C33.1004 11.5182 33.1734 11.6943 33.3032 11.8242L35.3722 13.8932C35.4363 13.9578 35.5126 14.0091 35.5966 14.0441C35.6807 14.0791 35.7708 14.0971 35.8619 14.0971C35.9529 14.0971 36.043 14.0791 36.1271 14.0441C36.2111 14.0091 36.2874 13.9578 36.3515 13.8932L38.4205 11.8242C38.5504 11.6943 38.6233 11.5182 38.6233 11.3345C38.6233 11.1509 38.5504 10.9747 38.4205 10.8449C38.2906 10.715 38.1145 10.6421 37.9308 10.6421C37.7472 10.6421 37.571 10.715 37.4412 10.8449L36.5515 11.7414V10.6449C36.5515 8.9987 35.8976 7.41996 34.7336 6.25594C33.5695 5.09192 31.9908 4.43798 30.3446 4.43798H28.9653C28.7824 4.43798 28.607 4.51064 28.4777 4.63998C28.3483 4.76931 28.2757 4.94473 28.2757 5.12763C28.2757 5.31054 28.3483 5.48596 28.4777 5.61529C28.607 5.74463 28.7824 5.81729 28.9653 5.81729ZM11.0343 33.4035H9.65497C8.37462 33.4035 7.1467 32.8949 6.24135 31.9895C5.336 31.0842 4.82738 29.8563 4.82738 28.5759V27.4794L5.71704 28.3759C5.78115 28.4405 5.85743 28.4919 5.94147 28.5269C6.02551 28.5619 6.11565 28.5799 6.20669 28.5799C6.29774 28.5799 6.38788 28.5619 6.47192 28.5269C6.55596 28.4919 6.63224 28.4405 6.69635 28.3759C6.76099 28.3118 6.8123 28.2355 6.84731 28.1515C6.88232 28.0674 6.90035 27.9773 6.90035 27.8863C6.90035 27.7952 6.88232 27.7051 6.84731 27.621C6.8123 27.537 6.76099 27.4607 6.69635 27.3966L4.62738 25.3276C4.56327 25.263 4.487 25.2117 4.40295 25.1767C4.31891 25.1417 4.22877 25.1236 4.13773 25.1236C4.04669 25.1236 3.95654 25.1417 3.8725 25.1767C3.78846 25.2117 3.71219 25.263 3.64807 25.3276L1.57911 27.3966C1.44924 27.5265 1.37629 27.7026 1.37629 27.8863C1.37629 28.0699 1.44924 28.246 1.57911 28.3759C1.70897 28.5058 1.88511 28.5787 2.06876 28.5787C2.25242 28.5787 2.42855 28.5058 2.55842 28.3759L3.44807 27.4794V28.5759C3.44807 30.2221 4.10201 31.8008 5.26603 32.9648C6.43005 34.1289 8.0088 34.7828 9.65497 34.7828H11.0343C11.2172 34.7828 11.3926 34.7101 11.5219 34.5808C11.6513 34.4515 11.7239 34.2761 11.7239 34.0932C11.7239 33.9102 11.6513 33.7348 11.5219 33.6055C11.3926 33.4762 11.2172 33.4035 11.0343 33.4035Z" fill="#1141CB"/>
<path d="M38.6199 38.9208H34.2199C35.4701 38.0658 36.5427 36.9768 37.3786 35.7139L36.7993 35.3828C36.7205 35.3375 36.6514 35.2772 36.5959 35.2052C36.5404 35.1332 36.4997 35.051 36.476 34.9633C36.4523 34.8755 36.4461 34.784 36.4578 34.6939C36.4695 34.6037 36.4988 34.5168 36.5441 34.438C36.5894 34.3592 36.6497 34.2901 36.7217 34.2346C36.7937 34.1792 36.8759 34.1384 36.9637 34.1147C37.0514 34.091 37.1429 34.0849 37.2331 34.0965C37.3232 34.1082 37.4101 34.1375 37.4889 34.1828L38.0682 34.5208C38.788 33.0991 39.2104 31.5456 39.3096 29.9552H38.6199C38.437 29.9552 38.2616 29.8826 38.1323 29.7532C38.003 29.6239 37.9303 29.4485 37.9303 29.2656C37.9303 29.0827 38.003 28.9073 38.1323 28.7779C38.2616 28.6486 38.437 28.5759 38.6199 28.5759H39.3096C39.218 26.989 38.8026 25.4376 38.0889 24.0173L37.5234 24.3483C37.3643 24.4398 37.1753 24.4643 36.9981 24.4164C36.8209 24.3686 36.67 24.2523 36.5786 24.0932C36.4871 23.934 36.4626 23.7451 36.5105 23.5679C36.5583 23.3907 36.6746 23.2398 36.8337 23.1483L37.4062 22.8173C36.529 21.4918 35.3937 20.3566 34.0682 19.4794L33.7372 20.0518C33.6919 20.1306 33.6315 20.1997 33.5596 20.2552C33.4876 20.3106 33.4054 20.3514 33.3176 20.3751C33.2299 20.3988 33.1383 20.4049 33.0482 20.3932C32.9581 20.3816 32.8712 20.3522 32.7924 20.307C32.7136 20.2617 32.6445 20.2013 32.589 20.1293C32.5335 20.0573 32.4928 19.9751 32.4691 19.8874C32.4454 19.7997 32.4392 19.7081 32.4509 19.618C32.4626 19.5279 32.4919 19.4409 32.5372 19.3621L32.8682 18.7966C31.4373 18.0784 29.8738 17.6628 28.2751 17.5759V18.2311C28.2751 18.414 28.2025 18.5894 28.0731 18.7188C27.9438 18.8481 27.7684 18.9208 27.5855 18.9208C27.4026 18.9208 27.2271 18.8481 27.0978 18.7188C26.9685 18.5894 26.8958 18.414 26.8958 18.2311V17.5759C25.3089 17.6675 23.7575 18.0829 22.3372 18.7966L22.6682 19.3621C22.7597 19.5213 22.7842 19.7102 22.7363 19.8874C22.6885 20.0646 22.5722 20.2155 22.4131 20.307C22.2539 20.3984 22.065 20.4229 21.8878 20.3751C21.7106 20.3272 21.5597 20.2109 21.4682 20.0518L21.1372 19.4794C19.8117 20.3566 18.6765 21.4918 17.7993 22.8173L18.3717 23.1483C18.5308 23.2398 18.6471 23.3907 18.6949 23.5679C18.7428 23.7451 18.7183 23.934 18.6268 24.0932C18.5354 24.2523 18.3845 24.3686 18.2073 24.4164C18.0301 24.4643 17.8411 24.4398 17.682 24.3483L17.1165 24.0173C16.4028 25.4376 15.9874 26.989 15.8958 28.5759H16.551C16.7339 28.5759 16.9093 28.6486 17.0386 28.7779C17.168 28.9073 17.2406 29.0827 17.2406 29.2656C17.2406 29.4485 17.168 29.6239 17.0386 29.7532C16.9093 29.8826 16.7339 29.9552 16.551 29.9552H15.8613C15.9541 31.5442 16.3694 33.0975 17.082 34.5208L17.6613 34.1828C17.8205 34.0914 18.0094 34.0669 18.1866 34.1147C18.3638 34.1626 18.5147 34.2789 18.6062 34.438C18.6976 34.5971 18.7221 34.7861 18.6742 34.9633C18.6264 35.1404 18.5101 35.2914 18.351 35.3828L17.7717 35.7139C18.6136 36.9787 19.6934 38.0679 20.951 38.9208H16.551C16.3681 38.9208 16.1927 38.9934 16.0633 39.1227C15.934 39.2521 15.8613 39.4275 15.8613 39.6104C15.8613 39.7933 15.934 39.9687 16.0633 40.0981C16.1927 40.2274 16.3681 40.3001 16.551 40.3001H38.6199C38.8029 40.3001 38.9783 40.2274 39.1076 40.0981C39.2369 39.9687 39.3096 39.7933 39.3096 39.6104C39.3096 39.4275 39.2369 39.2521 39.1076 39.1227C38.9783 38.9934 38.8029 38.9208 38.6199 38.9208ZM19.3096 29.2656C19.3096 24.6952 23.0151 20.9897 27.5855 20.9897C32.1558 20.9897 35.8613 24.6952 35.8613 29.2656C35.8613 33.8359 32.1558 37.5414 27.5855 37.5414C23.0151 37.5414 19.3096 33.8359 19.3096 29.2656Z" fill="#1141CB"/>
</g>
<defs>
<clipPath id="clip0_7469_2195">
<rect width="40" height="40" fill="white" transform="translate(0 0.300049)"/>
</clipPath>
</defs>
</svg>
