<svg width="18" height="18" viewBox="0 0 18 18" fill="none" xmlns="http://www.w3.org/2000/svg">
<g id="tow-truck">
<path id="Vector" d="M12.7533 15.75C13.5815 15.75 14.2528 15.0784 14.2528 14.25C14.2528 13.4216 13.5815 12.75 12.7533 12.75C11.9252 12.75 11.2539 13.4216 11.2539 14.25C11.2539 15.0784 11.9252 15.75 12.7533 15.75Z" stroke="#1141CB" stroke-width="1.125"/>
<path id="Vector_2" d="M5.25722 15.75C6.08532 15.75 6.75663 15.0784 6.75663 14.25C6.75663 13.4216 6.08532 12.75 5.25722 12.75C4.42912 12.75 3.75781 13.4216 3.75781 14.25C3.75781 15.0784 4.42912 15.75 5.25722 15.75Z" stroke="#1141CB" stroke-width="1.125"/>
<path id="Vector_3" d="M9.00488 9L4.50664 2.25M4.50664 2.25L6.00606 9.75M4.50664 2.25H2.88039C2.73861 2.25 2.61903 2.37073 2.60146 2.5316L2.35143 4.82143C2.81718 4.82143 3.19473 5.25316 3.19473 5.78572C3.19473 6.31828 2.81718 6.75 2.35143 6.75C1.98426 6.75 1.62358 6.48167 1.50781 6.10715M14.2529 14.25C16.2645 14.25 16.502 13.554 16.502 11.6344C16.502 10.7156 16.502 10.2562 16.322 9.86835C16.134 9.46335 15.7953 9.21105 15.083 8.69482C14.3755 8.18212 13.8725 7.60575 13.3931 6.81179C12.7096 5.67947 12.3678 5.11331 11.8552 4.80666C11.3426 4.5 10.7381 4.5 9.5289 4.5H9.00488V9.75" stroke="#1141CB" stroke-width="1.125" stroke-linecap="round" stroke-linejoin="round"/>
<path id="Vector_4" d="M3.75488 14.247C3.75488 14.247 2.88527 14.2547 2.61538 14.22C2.39047 14.13 2.11717 13.9189 1.94065 13.8015C1.40086 13.4426 1.50881 13.59 1.50881 13.266C1.50881 12.7595 1.50576 10.5047 1.50576 10.5047V9.78475C1.50576 9.73975 1.4595 9.74935 1.80564 9.75475H16.1101M6.75381 14.2515H11.252" stroke="#1141CB" stroke-width="1.125" stroke-linecap="round"/>
</g>
</svg>
