<svg width="18" height="18" viewBox="0 0 18 18" fill="none" xmlns="http://www.w3.org/2000/svg">
<g id="user-multiple">
<path id="Vector" d="M9.75 8.25C9.75 6.59314 8.40683 5.25 6.75 5.25C5.09314 5.25 3.75 6.59314 3.75 8.25C3.75 9.90683 5.09314 11.25 6.75 11.25C8.40683 11.25 9.75 9.90683 9.75 8.25Z" stroke="#1141CB" stroke-width="1.125" stroke-linecap="square"/>
<path id="Vector_2" d="M11.25 15.75C11.25 13.2647 9.23527 11.25 6.75 11.25C4.26472 11.25 2.25 13.2647 2.25 15.75" stroke="#1141CB" stroke-width="1.125" stroke-linecap="square"/>
<path id="Vector_3" d="M8.25 5.25C8.25 3.59314 9.59317 2.25 11.25 2.25C12.9068 2.25 14.25 3.59314 14.25 5.25C14.25 6.90686 12.9068 8.25 11.25 8.25M11.25 8.25C13.7353 8.25 15.75 10.2647 15.75 12.75M11.25 8.25C10.8521 8.25 10.4724 8.17252 10.125 8.0319" stroke="#1141CB" stroke-width="1.125" stroke-linecap="square"/>
</g>
</svg>
