<svg width="29" height="11" viewBox="0 0 29 11" fill="none" xmlns="http://www.w3.org/2000/svg">
<path d="M11.0111 0.675855L7.215 10.347H4.73731L2.87055 2.62966C2.75562 2.15375 2.65741 1.98055 2.31281 1.77845C1.74833 1.45263 0.819816 1.147 0 0.956629L0.057377 0.675915H4.04369C4.55209 0.675915 5.00918 1.03796 5.12411 1.6621L6.11118 7.25957L8.54922 0.675915L11.0111 0.675855ZM20.7163 7.18803C20.7272 4.63693 17.41 4.49809 17.4338 3.35679C17.4403 3.00841 17.7495 2.63976 18.4268 2.5467C18.7632 2.49892 19.6887 2.46391 20.7378 2.97811L21.1489 0.928206C20.5845 0.709477 19.859 0.5 18.9573 0.5C16.6413 0.5 15.0109 1.81522 14.9971 3.69707C14.982 5.08866 16.1604 5.86525 17.0492 6.32872C17.9619 6.80294 18.2671 7.10573 18.2639 7.53103C18.2579 8.18015 17.5357 8.46382 16.862 8.47658C15.6836 8.49618 15.0001 8.13661 14.4542 7.86521L14.03 9.98556C14.5767 10.2536 15.589 10.4863 16.6367 10.5C19.0982 10.4999 20.7085 9.19869 20.7163 7.18803ZM26.8323 10.3471H29L27.1085 0.675915H25.1073C24.6576 0.675915 24.2786 0.955904 24.1096 1.38484L20.5956 10.3471H23.0552L23.5434 8.90273H26.55L26.8323 10.3471ZM24.2175 6.9205L25.4515 3.28912L26.1613 6.9205H24.2175ZM14.3598 0.675855L12.421 10.347H10.0773L12.0165 0.675855H14.3598Z" fill="#1A2ADF"/>
</svg>
